<svg width="31" height="30" viewBox="0 0 31 30" fill="none" xmlns="http://www.w3.org/2000/svg">
<g id="Frame">
<path id="Vector" d="M15.6553 2.81247C13.2448 2.81247 10.8885 3.52725 8.88427 4.86643C6.88004 6.20561 5.31794 8.10904 4.3955 10.336C3.47305 12.563 3.2317 15.0135 3.70196 17.3776C4.17222 19.7418 5.33296 21.9134 7.03742 23.6178C8.74187 25.3223 10.9135 26.483 13.2776 26.9533C15.6418 27.4235 18.0923 27.1822 20.3192 26.2598C22.5462 25.3373 24.4496 23.7752 25.7888 21.771C27.128 19.7668 27.8428 17.4104 27.8428 15C27.8394 11.7687 26.5542 8.67073 24.2694 6.38587C21.9845 4.10101 18.8866 2.81588 15.6553 2.81247ZM21.0061 12.8508L14.4436 19.4133C14.3565 19.5004 14.2531 19.5696 14.1393 19.6167C14.0255 19.6639 13.9035 19.6882 13.7803 19.6882C13.6571 19.6882 13.5351 19.6639 13.4213 19.6167C13.3075 19.5696 13.2041 19.5004 13.117 19.4133L10.3045 16.6008C10.1286 16.4248 10.0298 16.1862 10.0298 15.9375C10.0298 15.6887 10.1286 15.4501 10.3045 15.2742C10.4804 15.0983 10.719 14.9994 10.9678 14.9994C11.2166 14.9994 11.4551 15.0983 11.6311 15.2742L13.7803 17.4246L19.6795 11.5242C19.7666 11.4371 19.87 11.368 19.9838 11.3209C20.0976 11.2737 20.2196 11.2494 20.3428 11.2494C20.466 11.2494 20.5879 11.2737 20.7017 11.3209C20.8155 11.368 20.919 11.4371 21.0061 11.5242C21.0932 11.6113 21.1623 11.7147 21.2094 11.8285C21.2565 11.9423 21.2808 12.0643 21.2808 12.1875C21.2808 12.3107 21.2565 12.4326 21.2094 12.5464C21.1623 12.6602 21.0932 12.7636 21.0061 12.8508Z" fill="#007ED1"/>
</g>
</svg>
