<svg width="100" height="100" viewBox="0 0 100 100" fill="none" xmlns="http://www.w3.org/2000/svg">
<g clip-path="url(#clip0_161_1345)">
<mask id="mask0_161_1345" style="mask-type:alpha" maskUnits="userSpaceOnUse" x="0" y="0" width="100" height="100">
<path d="M0 0H100V100H0V0Z" fill="white" fill-opacity="0.466667"/>
</mask>
<g mask="url(#mask0_161_1345)">
<path fill-rule="evenodd" clip-rule="evenodd" d="M100.354 0.353996L93.207 7.5H100V8.5H92.5V32.5H100V33.5H92.5V66.5H100V67.5H92.5V91.5H100V92.5H93.207L100.354 99.647L99.647 100.354L92.5 93.207V100H91.5V92.5H67.5V100H66.5V92.5H33.5V100H32.5V92.5H8.5V100H7.5V93.207L0.353996 100.354L-0.354004 99.647L6.793 92.5H-3.9041e-06V91.5H7.5V67.5H-3.9041e-06V66.5H7.5V33.5H-3.9041e-06V32.5H7.5V8.5H-3.9041e-06V7.5H6.793L-0.354004 0.353996L0.353996 -0.354004L7.5 6.793V-3.9041e-06H8.5V7.5H32.5V-3.9041e-06H33.5V7.5H66.5V-3.9041e-06H67.5V7.5H91.5V-3.9041e-06H92.5V6.793L99.647 -0.354004L100.354 0.353996ZM8.5 9.207V32.5H11.808C13.8229 28.1147 16.577 24.1086 19.95 20.657L8.5 9.207ZM20.657 19.95L9.207 8.5H32.5V11.808C28.1147 13.8229 24.1086 16.577 20.657 19.95ZM20.657 21.364C17.4763 24.6213 14.859 28.3846 12.912 32.5H31.792L20.658 21.364H20.657ZM32.5 31.793L21.364 20.657C24.6213 17.4763 28.3846 14.859 32.5 12.912V31.793ZM33.5 34.207V45.891C34.2045 43.0602 35.627 40.4588 37.63 38.338L33.5 34.207ZM38.338 37.631L34.208 33.5H45.89C43.0592 34.2045 40.4578 35.627 38.337 37.63L38.338 37.631ZM38.338 39.045C35.5463 42.0088 33.9942 45.9284 34 50C34 54.239 35.648 58.092 38.338 60.955L49.293 50L38.338 39.045ZM50 49.293L39.045 38.338C42.0088 35.5463 45.9284 33.9942 50 34C54.239 34 58.092 35.648 60.955 38.338L50 49.293ZM50 50.707L39.045 61.662C42.0088 64.4537 45.9284 66.0058 50 66C54.239 66 58.092 64.352 60.955 61.662L50 50.707ZM61.662 60.955L50.707 50L61.662 39.045C64.4537 42.0088 66.0058 45.9284 66 50C66 54.239 64.352 58.092 61.662 60.955ZM61.662 62.369C59.5416 64.3723 56.9406 65.7951 54.11 66.5H65.794L61.664 62.37L61.662 62.369ZM66.5 65.793L62.37 61.663C64.3732 59.542 65.7957 56.9402 66.5 54.109V65.793ZM67.5 68.207V87.088C71.6154 85.1411 75.3787 82.5238 78.636 79.343L67.5 68.207ZM79.343 78.636L68.207 67.5H87.088C85.1411 71.6154 82.5238 75.3787 79.343 78.636ZM79.343 80.05C75.8914 83.423 71.8853 86.1772 67.5 88.192V91.5H90.793L79.343 80.05ZM91.5 90.793L80.05 79.343C83.423 75.8914 86.1772 71.8853 88.192 67.5H91.5V90.793ZM67.5 8.5H90.793L79.343 19.95C75.8914 16.577 71.8853 13.8229 67.5 11.808V8.5ZM91.5 9.207L80.05 20.657C83.423 24.1086 86.1771 28.1147 88.192 32.5H91.5V9.207ZM67.5 12.912C71.6154 14.8589 75.3787 17.4763 78.636 20.657L67.5 31.793V12.912ZM79.343 21.364L68.207 32.5H87.088C85.1411 28.3846 82.5237 24.6213 79.343 21.364ZM54.109 33.5H65.793L61.663 37.63C59.5419 35.6268 56.9402 34.2044 54.109 33.5ZM66.5 34.207L62.37 38.337C64.3732 40.458 65.7957 43.0598 66.5 45.891V34.207ZM33.5 54.109C34.2045 56.9398 35.627 59.5412 37.63 61.662L33.5 65.792V54.109ZM38.338 62.369L34.208 66.5H45.89C43.0592 65.7955 40.4578 64.3731 38.337 62.37L38.338 62.369ZM12.912 67.5H31.792L20.658 78.636C17.4769 75.3787 14.8592 71.6155 12.912 67.5ZM32.5 68.207L21.364 79.343C24.6213 82.5237 28.3846 85.1411 32.5 87.088V68.207ZM11.808 67.5C13.8229 71.8853 16.577 75.8914 19.95 79.343L8.5 90.793V67.5H11.808ZM20.658 80.05L9.207 91.5H32.5V88.192C28.1147 86.1771 24.1086 83.423 20.657 80.05H20.658ZM88.634 33.5H91.5V43.5C90.9662 40.0601 90.0027 36.7007 88.634 33.5ZM66.5 11.365V8.5H56.5C59.9398 9.03386 63.2993 9.99635 66.5 11.365ZM43.5 8.5H33.5V11.365C36.7007 9.99637 40.0602 9.03388 43.5 8.5ZM33.5 12.455C38.7 10.1689 44.3196 8.99222 50 9C55.6804 8.99222 61.2999 10.1689 66.5 12.455V31.218C61.9423 27.2025 56.0742 24.9912 50 25C43.9258 24.9912 38.0577 27.2025 33.5 31.218V12.455ZM11.365 33.5H8.5V43.5C9.03388 40.0602 9.99637 36.7007 11.365 33.5ZM8.5 56.5V66.5H11.365C9.99635 63.2993 9.03386 59.9398 8.5 56.5ZM12.455 66.5C10.1689 61.2999 8.99222 55.6804 9 50C8.99222 44.3196 10.1689 38.7 12.455 33.5H31.218C27.2025 38.0577 24.9912 43.9258 25 50C24.9912 56.0742 27.2025 61.9423 31.218 66.5H12.455ZM33.5 88.635V91.5H43.5C40.0601 90.9662 36.7007 90.0037 33.5 88.635ZM56.5 91.5H66.5V88.635C63.2993 90.0037 59.9399 90.9662 56.5 91.5ZM66.5 87.545C61.2999 89.8311 55.6804 91.0078 50 91C44.3196 91.0078 38.7 89.8311 33.5 87.545V68.782C38.0577 72.7975 43.9258 75.0088 50 75C56.0743 75.0089 61.9423 72.7975 66.5 68.782V87.545ZM87.545 66.5H68.782C72.7975 61.9423 75.0089 56.0743 75 50C75.0088 43.9258 72.7975 38.0577 68.782 33.5H87.545C89.8311 38.7 91.0078 44.3196 91 50C91.0078 55.6804 89.8311 61.2999 87.545 66.5ZM88.635 66.5H91.5V56.5C90.9662 59.9399 90.0037 63.2993 88.635 66.5ZM33.575 32.5C38.02 28.3168 43.8962 25.9914 50 26C56.354 26 62.13 28.47 66.424 32.5H33.575ZM32.5 66.424C28.317 61.9793 25.9916 56.1035 26 50C26 43.646 28.47 37.87 32.5 33.576V66.424ZM66.424 67.5C61.9793 71.683 56.1035 74.0085 50 74C43.8965 74.0085 38.0207 71.683 33.576 67.5H66.424ZM67.5 33.576C71.683 38.0207 74.0085 43.8965 74 50C74 56.354 71.531 62.13 67.5 66.424V33.576Z" fill="white" fill-opacity="0.466667"/>
</g>
</g>
<defs>
<clipPath id="clip0_161_1345">
<rect width="100" height="100" fill="white"/>
</clipPath>
</defs>
</svg>
