<svg width="128" height="129" viewBox="0 0 128 129" fill="none" xmlns="http://www.w3.org/2000/svg">
<rect x="0.5" y="1" width="127" height="127" rx="31.5" fill="url(#paint0_linear_3735_8913)"/>
<rect x="0.5" y="1" width="127" height="127" rx="31.5" stroke="url(#paint1_linear_3735_8913)"/>
<g filter="url(#filter0_d_3735_8913)">
<rect x="52" y="91.5" width="25" height="27" rx="12.5" fill="url(#paint2_linear_3735_8913)" shape-rendering="crispEdges"/>
<rect x="52.25" y="91.75" width="24.5" height="26.5" rx="12.25" stroke="#262626" stroke-width="0.5" shape-rendering="crispEdges"/>
<g filter="url(#filter1_d_3735_8913)">
<path fill-rule="evenodd" clip-rule="evenodd" d="M64.5 100.5C64.784 100.5 65.0143 100.728 65.0143 101.009V105.084C65.0143 105.365 64.784 105.593 64.5 105.593C64.216 105.593 63.9857 105.365 63.9857 105.084V101.009C63.9857 100.728 64.216 100.5 64.5 100.5ZM62.3215 101.699C62.5048 101.914 62.4774 102.236 62.2604 102.417C61.7168 102.872 61.3273 103.481 61.1448 104.162C60.9622 104.843 60.9954 105.563 61.2398 106.224C61.4841 106.886 61.9279 107.458 62.5111 107.861C63.0942 108.265 63.7885 108.481 64.5 108.481C65.2115 108.481 65.9058 108.265 66.4889 107.861C67.0721 107.458 67.5158 106.886 67.7602 106.224C68.0046 105.563 68.0378 104.843 67.8552 104.162C67.6727 103.481 67.2832 102.872 66.7396 102.417C66.5226 102.236 66.4952 101.914 66.6785 101.699C66.8617 101.484 67.1862 101.457 67.4032 101.639C68.1079 102.228 68.6127 103.017 68.8494 103.9C69.086 104.783 69.043 105.717 68.7262 106.574C68.4094 107.432 67.8341 108.173 67.0782 108.696C66.3223 109.219 65.4223 109.5 64.5 109.5C63.5777 109.5 62.6777 109.219 61.9218 108.696C61.1659 108.173 60.5906 107.432 60.2738 106.574C59.957 105.717 59.914 104.783 60.1506 103.9C60.3873 103.017 60.8921 102.228 61.5968 101.639C61.8138 101.457 62.1383 101.484 62.3215 101.699Z" fill="white"/>
</g>
</g>
<defs>
<filter id="filter0_d_3735_8913" x="50.6" y="90.1" width="26.4" height="28.4" filterUnits="userSpaceOnUse" color-interpolation-filters="sRGB">
<feFlood flood-opacity="0" result="BackgroundImageFix"/>
<feColorMatrix in="SourceAlpha" type="matrix" values="0 0 0 0 0 0 0 0 0 0 0 0 0 0 0 0 0 0 127 0" result="hardAlpha"/>
<feOffset dx="-1" dy="-1"/>
<feGaussianBlur stdDeviation="0.2"/>
<feComposite in2="hardAlpha" operator="out"/>
<feColorMatrix type="matrix" values="0 0 0 0 0 0 0 0 0 0 0 0 0 0 0 0 0 0 0.08 0"/>
<feBlend mode="normal" in2="BackgroundImageFix" result="effect1_dropShadow_3735_8913"/>
<feBlend mode="normal" in="SourceGraphic" in2="effect1_dropShadow_3735_8913" result="shape"/>
</filter>
<filter id="filter1_d_3735_8913" x="55.5" y="96" width="18" height="18" filterUnits="userSpaceOnUse" color-interpolation-filters="sRGB">
<feFlood flood-opacity="0" result="BackgroundImageFix"/>
<feColorMatrix in="SourceAlpha" type="matrix" values="0 0 0 0 0 0 0 0 0 0 0 0 0 0 0 0 0 0 127 0" result="hardAlpha"/>
<feOffset/>
<feGaussianBlur stdDeviation="2.25"/>
<feComposite in2="hardAlpha" operator="out"/>
<feColorMatrix type="matrix" values="0 0 0 0 1 0 0 0 0 1 0 0 0 0 1 0 0 0 0.25 0"/>
<feBlend mode="normal" in2="BackgroundImageFix" result="effect1_dropShadow_3735_8913"/>
<feBlend mode="normal" in="SourceGraphic" in2="effect1_dropShadow_3735_8913" result="shape"/>
</filter>
<linearGradient id="paint0_linear_3735_8913" x1="128" y1="0.500015" x2="1.52588e-05" y2="128.5" gradientUnits="userSpaceOnUse">
<stop stop-color="#1E1E1E"/>
<stop offset="0.504196" stop-color="#232323"/>
<stop offset="1" stop-color="#272727"/>
</linearGradient>
<linearGradient id="paint1_linear_3735_8913" x1="0" y1="0.5" x2="128" y2="128.5" gradientUnits="userSpaceOnUse">
<stop stop-color="#323232"/>
<stop offset="0.16" stop-color="#343434"/>
<stop offset="0.333333" stop-color="#4F4F4F"/>
<stop offset="0.666667" stop-color="#242424"/>
<stop offset="1" stop-color="#343434"/>
</linearGradient>
<linearGradient id="paint2_linear_3735_8913" x1="55.5" y1="96" x2="74" y2="114.5" gradientUnits="userSpaceOnUse">
<stop stop-color="#161616"/>
<stop offset="1" stop-color="#2B2B2B"/>
</linearGradient>
</defs>
</svg>
