<svg width="60" height="13" viewBox="0 0 60 13" fill="none" xmlns="http://www.w3.org/2000/svg">
<g clip-path="url(#clip0_72_12770)">
<path fill-rule="evenodd" clip-rule="evenodd" d="M31.1743 12.9674C30.9576 12.9891 30.7399 13 30.5221 13C28.7923 13 27.1334 12.3152 25.9103 11.0962C24.6871 9.87721 24 8.22391 24 6.5C24 4.77609 24.6871 3.12279 25.9103 1.90381C27.1334 0.684819 28.7923 0 30.5221 0C30.7399 -6.24931e-09 30.9576 0.0108742 31.1743 0.0325816V1.98258C30.958 1.95622 30.74 1.94533 30.5221 1.95C29.3113 1.95 28.15 2.42937 27.2938 3.28266C26.4376 4.13595 25.9566 5.29326 25.9566 6.5C25.9566 7.70673 26.4376 8.86404 27.2938 9.71733C28.15 10.5706 29.3113 11.05 30.5221 11.05C30.74 11.0547 30.958 11.0438 31.1743 11.0174V12.9674Z" fill="#BFBFBF"/>
<path fill-rule="evenodd" clip-rule="evenodd" d="M42.2619 12.9674C42.0452 12.9891 41.8275 13 41.6097 13C39.8799 13 38.221 12.3152 36.9979 11.0962C35.7747 9.87721 35.0876 8.22391 35.0876 6.5C35.0876 4.77609 35.7747 3.12279 36.9979 1.90381C38.221 0.684819 39.8799 0 41.6097 0C41.8275 -6.24931e-09 42.0452 0.0108742 42.2619 0.0325816V1.98258C42.0456 1.95622 41.8276 1.94533 41.6097 1.95C40.5687 1.94991 39.559 2.30435 38.7479 2.95455C37.9368 3.60475 37.373 4.51168 37.1499 5.525H40.9575V7.475H37.1499C37.373 8.48832 37.9368 9.39525 38.7479 10.0454C39.559 10.6957 40.5687 11.0501 41.6097 11.05C41.8276 11.0547 42.0456 11.0438 42.2619 11.0174V12.9674Z" fill="#BFBFBF"/>
</g>
<g clip-path="url(#clip1_72_12770)">
<path d="M55.4069 1.05709H54.6449V1.17689H55.4069V1.05709ZM53.2295 1.42901C53.1116 1.49307 53.0199 1.57131 52.9693 1.66676H53.2295V1.42901ZM57.1861 2.56906L56.899 2.86149L56.8851 3.0102H57.2297V2.56906H57.1861ZM54.595 4.90566L53.1116 3.34089L53.3548 6.16773L54.595 4.90566ZM54.8884 4.90951L56.3065 6.40304L56.6008 3.24514H56.5718V3.19476L54.8884 4.90951ZM53.083 3.00811L54.7423 4.7557L55.7238 3.75692H54.34V3.23434H55.9405V3.53646L56.5718 2.89404V2.33412H56.6857L56.7225 1.9389H52.991L53.083 3.00811ZM57.0892 7.53677C57.0961 7.57758 57.0996 7.61949 57.0996 7.66226C57.0996 8.0779 56.7627 8.41481 56.3471 8.41481C56.0585 8.41481 55.8078 8.25236 55.6815 8.01389H53.8412V8.40702H53.357V8.01289C53.3003 8.00492 53.2459 7.951 53.2411 7.89446L53.1377 6.69281L50.5727 9.30555L50.4193 9.15487L53.1136 6.41312L52.8232 3.03664L50.26 0.332839V0.0350781L52.7946 2.70441L52.7278 1.92807H52.413V1.66678H52.69C52.6947 1.65211 52.7011 1.63495 52.7094 1.61579C52.8014 1.40295 52.9916 1.25079 53.2295 1.14255V0.969861H53.676V0.996578C53.9086 0.943123 54.1545 0.914054 54.3836 0.899292V0.795821H55.6683V1.43818H54.3836V1.16683C54.1561 1.18384 53.9049 1.21491 53.676 1.26936V1.66678H56.7123C56.5931 1.38564 56.1298 1.25399 55.6683 1.19431V0.928251C56.1315 0.985669 56.6077 1.1152 56.8467 1.39504C56.9105 1.31385 57.0096 1.26168 57.1208 1.26168C57.3132 1.26168 57.4692 1.41765 57.4692 1.61006C57.4692 1.80246 57.3132 1.95845 57.1208 1.95845C57.0729 1.95845 57.0273 1.94878 56.9857 1.93127L56.9482 2.3341H57.122L59.4157 0V0.297913L57.4168 2.33407H57.4584V3.24514H56.8633L56.5455 6.65471L58.8961 9.13031L58.7402 9.27831L57.0892 7.53677ZM55.5945 7.66226C55.5945 7.27646 55.8848 6.95848 56.2588 6.9148L56.2804 6.68353L54.741 5.05967L53.3788 6.4472L53.4911 7.75262H55.5998C55.5963 7.72299 55.5945 7.69283 55.5945 7.66226ZM55.9557 7.66226C55.9557 7.87841 56.1309 8.05365 56.3471 8.05365C56.5632 8.05365 56.7385 7.87841 56.7385 7.66226C56.7385 7.44608 56.5632 7.27087 56.3471 7.27087C56.1309 7.27087 55.9557 7.44608 55.9557 7.66226ZM56.0929 7.66226C56.0929 7.52188 56.2067 7.40807 56.3471 7.40807C56.4874 7.40807 56.6013 7.52188 56.6013 7.66226C56.6013 7.80264 56.4874 7.91643 56.3471 7.91643C56.2067 7.91643 56.0929 7.80264 56.0929 7.66226ZM50.9977 11.1566H58.5679V13H50.9977V11.1566Z" fill="#BFBFBF"/>
</g>
<path d="M8.93347 1.57941C9.99331 1.23507 11.1369 1.23126 12.1991 1.56853C13.2613 1.9058 14.1871 2.56668 14.8428 3.45574L15.9265 2.68121C15.104 1.56595 13.9426 0.736921 12.6102 0.313845C11.2778 -0.109231 9.84323 -0.10445 8.51374 0.327496C7.18425 0.759442 6.02864 1.5962 5.21381 2.71691C4.5446 3.63734 4.13369 4.71017 4.01564 5.82766H1.33923V1.45968H4.60392L5.60834 0.141339H0V12.7489L1.33923 11.8689V7.146H4.01292C4.13157 8.31556 4.57074 9.43557 5.2886 10.3839C6.12515 11.489 7.29687 12.3038 8.63454 12.7105C9.9722 13.1172 11.4066 13.0949 12.7305 12.6467C14.0544 12.1985 15.1994 11.3477 16 10.2171L14.9014 9.46317C14.2631 10.3645 13.3504 11.0427 12.295 11.4C11.2396 11.7573 10.0961 11.7751 9.02977 11.4509C7.96341 11.1266 7.02934 10.4771 6.36246 9.59616C5.69559 8.71519 5.33042 7.64837 5.3197 6.54976C5.30899 5.45114 5.65327 4.37761 6.30284 3.4842C6.95241 2.59079 7.87364 1.92375 8.93347 1.57941Z" fill="#BFBFBF"/>
<path d="M9.82247 4.2309C10.3112 4.07211 10.8386 4.07036 11.3284 4.22589C11.8182 4.38143 12.2451 4.68619 12.5475 5.09618L13.6312 4.32166C13.162 3.68547 12.4996 3.21256 11.7395 2.97121C10.9794 2.72987 10.1611 2.73259 9.40275 2.97898C8.64436 3.22537 7.98516 3.70268 7.52034 4.34197C7.05553 4.98126 6.80916 5.74945 6.81682 6.53558C6.82448 7.32171 7.08578 8.0851 7.56297 8.71549C8.04016 9.34588 8.70855 9.81065 9.4716 10.0427C10.2346 10.2747 11.0529 10.262 11.8081 10.0063C12.5633 9.75064 13.2164 9.2653 13.6731 8.62037L12.5745 7.86646C12.2802 8.28208 11.8593 8.59486 11.3726 8.75962C10.8859 8.92437 10.3586 8.93258 9.86684 8.78306C9.3751 8.63353 8.94436 8.33401 8.63684 7.92776C8.32931 7.52151 8.16092 7.02955 8.15598 6.52293C8.15105 6.01631 8.30982 5.52126 8.60936 5.10927C8.90891 4.69728 9.33373 4.38969 9.82247 4.2309Z" fill="#BFBFBF"/>
<defs>
<clipPath id="clip0_72_12770">
<rect width="18.2619" height="13" fill="white" transform="translate(24)"/>
</clipPath>
<clipPath id="clip1_72_12770">
<rect width="9.15572" height="13" fill="white" transform="translate(50.26)"/>
</clipPath>
</defs>
</svg>
