<svg width="25" height="25" viewBox="0 0 25 25" fill="none" xmlns="http://www.w3.org/2000/svg">
<rect width="25" height="25" fill="#5351F3"/>
<path fill-rule="evenodd" clip-rule="evenodd" d="M7.72667 14.5925C6.95258 14.5925 6.47834 14.8189 6.17676 15.1746C5.92971 15.4661 5.49319 15.5021 5.20175 15.255C4.91031 15.008 4.87433 14.5715 5.12137 14.28C5.75401 13.5337 6.66484 13.209 7.72667 13.209C8.61902 13.209 9.43688 13.4356 10.1627 13.8922C10.9147 13.4465 11.707 13.209 12.5325 13.209C13.3395 13.209 14.1014 13.4361 14.8097 13.8683C15.4418 13.4427 16.2006 13.2471 17.046 13.2471C18.1064 13.2471 19.0405 13.5542 19.7994 14.2007C20.0903 14.4484 20.1252 14.8851 19.8775 15.1759C19.6298 15.4667 19.1932 15.5017 18.9023 15.254C18.4272 14.8492 17.8246 14.6307 17.046 14.6307C16.3106 14.6307 15.7819 14.8253 15.3956 15.1587C15.0935 15.4195 14.6521 15.4396 14.3274 15.2074L14.3152 15.1987C13.7304 14.7835 13.1405 14.5925 12.5325 14.5925C11.9135 14.5925 11.285 14.7907 10.6363 15.2295C10.3318 15.4356 9.93024 15.4265 9.6353 15.207L9.61387 15.191C9.07105 14.7936 8.4503 14.5925 7.72667 14.5925Z" fill="white"/>
<path fill-rule="evenodd" clip-rule="evenodd" d="M16.3688 10.6729C15.3599 9.79788 14.0593 9.35338 12.4071 9.38512C10.7473 9.41702 9.45824 9.89403 8.47994 10.7692C7.49338 11.6518 6.75755 12.9979 6.32305 14.8828C6.23724 15.2551 5.86586 15.4873 5.49357 15.4015C5.12128 15.3157 4.88904 14.9443 4.97486 14.572C5.45175 12.5032 6.29575 10.8668 7.55749 9.73805C8.82749 8.60191 10.4552 8.03883 12.3806 8.00183C14.3137 7.96469 15.9651 8.4914 17.2752 9.62771C18.574 10.7541 19.4721 12.423 20.0207 14.555C20.1159 14.925 19.8932 15.3022 19.5232 15.3974C19.1531 15.4926 18.776 15.2698 18.6808 14.8998C18.1766 12.9403 17.389 11.5578 16.3688 10.6729Z" fill="white"/>
</svg>
