<svg width="610" height="600" viewBox="0 0 61 60" fill="none" xmlns="http://www.w3.org/2000/svg">
<g clip-path="url(#clip0_1032_7552)">
<g filter="url(#filter0_ii_1032_7552)">
<path d="M30.8743 5L31.1668 5.0175C31.7249 5.08331 32.2445 5.3352 32.6418 5.73253C33.0391 6.12986 33.291 6.64946 33.3568 7.2075L33.3743 7.5V17.5L33.3868 17.875C33.4763 19.0654 33.9887 20.1846 34.8315 21.0301C35.6742 21.8756 36.7917 22.3917 37.9818 22.485L38.3743 22.5H48.3743L48.6668 22.5175C49.2249 22.5833 49.7445 22.8352 50.1418 23.2325C50.5391 23.6299 50.791 24.1495 50.8568 24.7075L50.8743 25V47.5C50.8744 49.413 50.1435 51.2538 48.8311 52.6456C47.5187 54.0375 45.724 54.8753 43.8143 54.9875L43.3743 55H18.3743C16.4613 55.0001 14.6205 54.2692 13.2287 52.9568C11.8368 51.6444 10.999 49.8497 10.8868 47.94L10.8743 47.5V12.5C10.8742 10.587 11.6051 8.74621 12.9175 7.35435C14.2299 5.96248 16.0246 5.12473 17.9343 5.0125L18.3743 5H30.8743Z" fill="url(#paint0_linear_1032_7552)"/>
</g>
<path d="M30.8685 5.375L31.1292 5.39062C31.5419 5.44055 31.9297 5.61025 32.2454 5.87695L32.3763 5.99805C32.7122 6.33403 32.9254 6.7726 32.9827 7.24414L32.9993 7.5V17.5127L33.012 17.8877V17.8955L33.013 17.9033C33.1092 19.1829 33.6598 20.3861 34.5657 21.2949C35.4717 22.2038 36.6731 22.758 37.9524 22.8584L37.9603 22.8594H37.9671L38.3597 22.875H48.3685L48.6292 22.8906C49.1011 22.9477 49.54 23.1618 49.8763 23.498C50.2122 23.834 50.4254 24.2726 50.4827 24.7441L50.4993 25V47.5L50.4915 47.8398C50.4107 49.5343 49.7268 51.149 48.5579 52.3887C47.3138 53.7079 45.6137 54.503 43.804 54.6123L43.3636 54.625H18.3743L18.0345 54.6172C16.34 54.5364 14.7253 53.8525 13.4856 52.6836C12.1662 51.4393 11.3701 49.7388 11.261 47.9287L11.2493 47.4893V12.5L11.2571 12.1602C11.3325 10.5786 11.9331 9.0667 12.9632 7.86426L13.1907 7.61133C14.4348 6.29209 16.1349 5.49703 17.9446 5.3877L18.3851 5.375H30.8685Z" stroke="url(#paint1_linear_1032_7552)" stroke-opacity="0.2" stroke-width="0.75"/>
<path d="M27.0861 25.7994C23.9935 25.7994 21.4861 23.292 21.4861 20.1994C21.4861 19.2894 21.7078 18.4331 22.0928 17.6738C19.8458 18.4018 18.2195 20.5098 18.2195 22.9994C18.2195 26.092 20.7269 28.5994 23.8195 28.5994C26.0025 28.5994 27.8888 27.3478 28.8128 25.525C28.2687 25.7014 27.6891 25.7994 27.0861 25.7994Z" fill="#E8F5FE"/>
<g clip-path="url(#clip1_1032_7552)">
<path d="M19.6885 37.7118C16.5775 43.2041 11.5815 51.9365 9.81946 54.9609C9.93846 54.9687 10.0525 55 10.1745 55H34.7415C34.8885 54.2556 35.0415 53.6901 35.2145 53.4878L25.1165 37.5621C23.7665 35.4184 20.9415 35.4932 19.6885 37.7118Z" fill="url(#paint2_linear_1032_7552)"/>
<path d="M50.8195 54.2893L38.2839 31.1253C36.7037 28.2083 33.3975 28.3111 31.9298 31.3284C28.2605 38.8574 22.3477 50.9761 20.3273 55H48.5578C49.3746 55 50.1352 54.7301 50.8195 54.2893Z" fill="url(#paint3_linear_1032_7552)"/>
</g>
<path d="M49.9692 23.5176H38.8599C35.7538 23.5175 33.2356 20.9996 33.2349 17.8936L33.2319 6.78125L49.9692 23.5176Z" fill="url(#paint4_linear_1032_7552)" stroke="url(#paint5_linear_1032_7552)" stroke-width="0.75"/>
</g>
<defs>
<filter id="filter0_ii_1032_7552" x="10.1243" y="4.25" width="41.5" height="51.5" filterUnits="userSpaceOnUse" color-interpolation-filters="sRGB">
<feFlood flood-opacity="0" result="BackgroundImageFix"/>
<feBlend mode="normal" in="SourceGraphic" in2="BackgroundImageFix" result="shape"/>
<feColorMatrix in="SourceAlpha" type="matrix" values="0 0 0 0 0 0 0 0 0 0 0 0 0 0 0 0 0 0 127 0" result="hardAlpha"/>
<feOffset dx="1.5" dy="1.5"/>
<feGaussianBlur stdDeviation="0.375"/>
<feComposite in2="hardAlpha" operator="arithmetic" k2="-1" k3="1"/>
<feColorMatrix type="matrix" values="0 0 0 0 1 0 0 0 0 1 0 0 0 0 1 0 0 0 0.44 0"/>
<feBlend mode="normal" in2="shape" result="effect1_innerShadow_1032_7552"/>
<feColorMatrix in="SourceAlpha" type="matrix" values="0 0 0 0 0 0 0 0 0 0 0 0 0 0 0 0 0 0 127 0" result="hardAlpha"/>
<feOffset dx="-0.75" dy="-0.75"/>
<feGaussianBlur stdDeviation="1.5"/>
<feComposite in2="hardAlpha" operator="arithmetic" k2="-1" k3="1"/>
<feColorMatrix type="matrix" values="0 0 0 0 0.171905 0 0 0 0 0.378826 0 0 0 0 0.534993 0 0 0 1 0"/>
<feBlend mode="normal" in2="effect1_innerShadow_1032_7552" result="effect2_innerShadow_1032_7552"/>
</filter>
<linearGradient id="paint0_linear_1032_7552" x1="30.8743" y1="5" x2="30.8743" y2="55" gradientUnits="userSpaceOnUse">
<stop stop-color="#A2C5E0"/>
<stop offset="1" stop-color="#C7DAEE"/>
</linearGradient>
<linearGradient id="paint1_linear_1032_7552" x1="30.8743" y1="5" x2="30.8743" y2="55" gradientUnits="userSpaceOnUse">
<stop stop-color="white"/>
<stop offset="1" stop-color="white"/>
</linearGradient>
<linearGradient id="paint2_linear_1032_7552" x1="22.5165" y1="63.3781" x2="22.5165" y2="24.7379" gradientUnits="userSpaceOnUse">
<stop stop-color="#155CDE"/>
<stop offset="0.278" stop-color="#1F7FE5"/>
<stop offset="0.569" stop-color="#279CEB"/>
<stop offset="0.82" stop-color="#2CAFEF"/>
<stop offset="1" stop-color="#2EB5F0"/>
</linearGradient>
<linearGradient id="paint3_linear_1032_7552" x1="35.5734" y1="77.2923" x2="35.5734" y2="22.2121" gradientUnits="userSpaceOnUse">
<stop stop-color="#155CDE"/>
<stop offset="0.278" stop-color="#1F7FE5"/>
<stop offset="0.569" stop-color="#279CEB"/>
<stop offset="0.82" stop-color="#2CAFEF"/>
<stop offset="1" stop-color="#2EB5F0"/>
</linearGradient>
<linearGradient id="paint4_linear_1032_7552" x1="32.8569" y1="23.8923" x2="45.2887" y2="11.8114" gradientUnits="userSpaceOnUse">
<stop stop-color="#49A5E3"/>
<stop offset="1" stop-color="#B1CEE6"/>
</linearGradient>
<linearGradient id="paint5_linear_1032_7552" x1="41.8656" y1="14.2523" x2="32.8569" y2="23.8923" gradientUnits="userSpaceOnUse">
<stop offset="0.1465" stop-color="white" stop-opacity="0"/>
<stop offset="1" stop-color="white"/>
</linearGradient>
<clipPath id="clip0_1032_7552">
<rect width="60" height="60" fill="white" transform="translate(0.875)"/>
</clipPath>
<clipPath id="clip1_1032_7552">
<rect x="10.8195" y="29" width="40" height="26" rx="8" fill="white"/>
</clipPath>
</defs>
</svg>
