<svg width="610" height="600" viewBox="0 0 61 60" fill="none" xmlns="http://www.w3.org/2000/svg">
<g clip-path="url(#clip0_1032_7762)">
<g filter="url(#filter0_ii_1032_7762)">
<path d="M30.1243 5L30.4168 5.0175C30.9749 5.08331 31.4945 5.3352 31.8918 5.73253C32.2891 6.12986 32.541 6.64946 32.6068 7.2075L32.6243 7.5V17.5L32.6368 17.875C32.7263 19.0654 33.2387 20.1846 34.0815 21.0301C34.9242 21.8756 36.0417 22.3917 37.2318 22.485L37.6243 22.5H47.6243L47.9168 22.5175C48.4749 22.5833 48.9945 22.8352 49.3918 23.2325C49.7891 23.6299 50.041 24.1495 50.1068 24.7075L50.1243 25V47.5C50.1244 49.413 49.3935 51.2538 48.0811 52.6456C46.7687 54.0375 44.9741 54.8753 43.0643 54.9875L42.6243 55H17.6243C15.7113 55.0001 13.8705 54.2692 12.4787 52.9568C11.0868 51.6444 10.2491 49.8497 10.1368 47.94L10.1243 47.5V12.5C10.1242 10.587 10.8551 8.74621 12.1675 7.35435C13.4799 5.96248 15.2746 5.12473 17.1843 5.0125L17.6243 5H30.1243Z" fill="url(#paint0_linear_1032_7762)"/>
</g>
<path d="M30.1185 5.375L30.3792 5.39062C30.792 5.44055 31.1797 5.61025 31.4954 5.87695L31.6263 5.99805C31.9623 6.33403 32.1754 6.7726 32.2327 7.24414L32.2493 7.5V17.5127L32.262 17.8877V17.8955L32.263 17.9033C32.3592 19.1829 32.9098 20.3861 33.8157 21.2949C34.7217 22.2038 35.9231 22.758 37.2025 22.8584L37.2103 22.8594H37.2171L37.6097 22.875H47.6185L47.8792 22.8906C48.3512 22.9477 48.79 23.1618 49.1263 23.498C49.4623 23.834 49.6754 24.2726 49.7327 24.7441L49.7493 25V47.5L49.7415 47.8398C49.6608 49.5343 48.9768 51.149 47.8079 52.3887C46.5639 53.7079 44.8637 54.503 43.054 54.6123L42.6136 54.625H17.6243L17.2845 54.6172C15.59 54.5364 13.9753 53.8525 12.7357 52.6836C11.4162 51.4393 10.6201 49.7388 10.511 47.9287L10.4993 47.4893V12.5L10.5071 12.1602C10.5825 10.5786 11.1831 9.0667 12.2132 7.86426L12.4407 7.61133C13.6848 6.29209 15.3849 5.49703 17.1946 5.3877L17.6351 5.375H30.1185Z" stroke="url(#paint1_linear_1032_7762)" stroke-opacity="0.2" stroke-width="0.75"/>
<g filter="url(#filter1_di_1032_7762)">
<path d="M46.1243 49.5044L46.018 49.5044L45.9436 49.2919C45.9011 49.1502 45.8374 49.0581 45.7524 49.0156C45.6674 48.966 45.5541 48.9412 45.4124 48.9412L39.8449 48.9412C39.7032 48.9412 39.5899 48.966 39.5049 49.0156C39.4199 49.0652 39.3526 49.1608 39.303 49.3025L39.218 49.5044L39.1118 49.5044L39.1118 46.9225C39.1118 45.8671 39.3066 45.1056 39.6961 44.6381C40.0786 44.1635 40.5851 43.9262 41.2155 43.9262C41.6193 43.9262 41.9911 44.0254 42.3311 44.2237C42.6641 44.415 42.9297 44.7337 43.128 45.18C43.3264 45.6262 43.4255 46.2283 43.4255 46.9862L43.4255 47.3475L45.3805 47.3475C45.6568 47.3475 45.8374 47.2094 45.9224 46.9331L46.018 46.6144L46.1243 46.6144L46.1243 49.5044ZM43.213 47.3475L43.213 46.9437C43.213 46.5967 43.1564 46.3133 43.043 46.0937C42.9297 45.8742 42.7314 45.7112 42.448 45.605C42.1647 45.4987 41.7716 45.4456 41.2686 45.4456C40.7586 45.4456 40.362 45.5058 40.0786 45.6262C39.7953 45.7396 39.6005 45.9096 39.4943 46.1362C39.3809 46.3629 39.3243 46.6462 39.3243 46.9862L39.3243 47.3475L43.213 47.3475ZM46.3155 41.4895C46.3155 41.8791 46.2659 42.2758 46.1668 42.6795C46.0747 43.0833 45.9507 43.4197 45.7949 43.6889L44.3499 43.6358L44.3499 43.5295L45.0405 43.2002C45.2389 43.101 45.4159 42.9947 45.5718 42.8814C45.7205 42.7681 45.8374 42.6122 45.9224 42.4139C45.9932 42.2722 46.0428 42.1377 46.0711 42.0102C46.0924 41.8756 46.103 41.7268 46.103 41.5639C46.103 41.1318 45.9861 40.7918 45.7524 40.5439C45.5186 40.2889 45.2176 40.1614 44.8493 40.1614C44.5022 40.1614 44.233 40.2464 44.0418 40.4164C43.8434 40.5864 43.6522 40.8591 43.468 41.2345L43.2768 41.6702C43.0076 42.2793 42.6995 42.7575 42.3524 43.1045C41.9982 43.4445 41.5307 43.6145 40.9499 43.6145C40.532 43.6145 40.1707 43.5083 39.8661 43.2958C39.5616 43.0762 39.3278 42.7752 39.1649 42.3927C39.002 42.0031 38.9205 41.5497 38.9205 41.0327C38.9205 40.6572 38.9701 40.3031 39.0693 39.9702C39.1684 39.6302 39.303 39.3362 39.473 39.0883L40.748 39.152L40.748 39.2583L39.9511 39.6939C39.7032 39.8143 39.5297 39.9347 39.4305 40.0552C39.3243 40.1756 39.2499 40.3137 39.2074 40.4695C39.1791 40.5616 39.1614 40.6466 39.1543 40.7245C39.1401 40.8025 39.133 40.9016 39.133 41.022C39.133 41.3833 39.2393 41.6879 39.4518 41.9358C39.6572 42.1837 39.937 42.3077 40.2911 42.3077C40.6524 42.3077 40.9428 42.212 41.1624 42.0208C41.3749 41.8295 41.5661 41.5497 41.7361 41.1814L41.9486 40.6927C42.2461 40.0127 42.5649 39.5239 42.9049 39.2264C43.2378 38.9289 43.6699 38.7802 44.2011 38.7802C44.8245 38.7802 45.3345 39.0175 45.7311 39.492C46.1207 39.9595 46.3155 40.6254 46.3155 41.4895ZM46.1243 38.5934L46.018 38.5934L45.933 38.3703C45.8409 38.1436 45.6603 38.0303 45.3911 38.0303L39.8449 38.0303C39.5616 38.0303 39.3809 38.1436 39.303 38.3703L39.218 38.5934L39.1118 38.5934L39.1118 35.7884C39.1118 35.0376 39.2534 34.393 39.5368 33.8546C39.813 33.3092 40.2132 32.8913 40.7374 32.6009C41.2545 32.3034 41.8778 32.1546 42.6074 32.1546C43.3511 32.1546 43.9851 32.314 44.5093 32.6328C45.0334 32.9515 45.4336 33.3978 45.7099 33.9715C45.9861 34.5382 46.1243 35.2076 46.1243 35.9796L46.1243 38.5934ZM45.9118 36.4365L45.9118 35.9796C45.9118 35.4696 45.8126 35.0588 45.6143 34.7471C45.4089 34.4355 45.0689 34.2088 44.5943 34.0671C44.1126 33.9184 43.4539 33.844 42.618 33.844C41.7822 33.844 41.127 33.9184 40.6524 34.0671C40.1707 34.2088 39.8307 34.4319 39.6324 34.7365C39.427 35.0411 39.3243 35.4413 39.3243 35.9371L39.3243 36.4365L45.9118 36.4365Z" fill="white" fill-opacity="0.19" shape-rendering="crispEdges"/>
</g>
<path d="M49.2192 23.5176H38.1099C35.0038 23.5175 32.4856 20.9996 32.4849 17.8936L32.4819 6.78125L49.2192 23.5176Z" fill="url(#paint2_linear_1032_7762)" stroke="url(#paint3_linear_1032_7762)" stroke-width="0.75"/>
<path opacity="0.5" d="M35.6082 31.0136L28.931 41.9285C28.3012 42.958 26.9101 43.1994 25.9703 42.4423L24.7028 41.4213L23.6976 40.7494C22.5683 39.9945 22.504 38.3574 23.5706 37.5162L33.8243 29.4299C34.2196 29.1182 34.7663 29.0833 35.1979 29.3422C35.7753 29.6886 35.9596 30.4392 35.6082 31.0136Z" fill="url(#paint4_linear_1032_7762)"/>
<path d="M15.6852 50.9365C15.1754 50.9496 14.9211 50.3371 15.2819 49.9771C16.5263 48.7345 17.3801 46.8792 17.852 45.3015C18.5671 42.908 19.3063 40.4333 22.9922 40.2329C23.0806 40.2283 23.1699 40.2544 23.2442 40.3065L26.4271 42.5713C26.534 42.6456 26.5972 42.7686 26.5972 42.8992C26.5964 49.2581 22.8527 50.7542 15.6852 50.9365Z" fill="url(#paint5_linear_1032_7762)"/>
</g>
<defs>
<filter id="filter0_ii_1032_7762" x="9.37433" y="4.25" width="41.5" height="51.5" filterUnits="userSpaceOnUse" color-interpolation-filters="sRGB">
<feFlood flood-opacity="0" result="BackgroundImageFix"/>
<feBlend mode="normal" in="SourceGraphic" in2="BackgroundImageFix" result="shape"/>
<feColorMatrix in="SourceAlpha" type="matrix" values="0 0 0 0 0 0 0 0 0 0 0 0 0 0 0 0 0 0 127 0" result="hardAlpha"/>
<feOffset dx="1.5" dy="1.5"/>
<feGaussianBlur stdDeviation="0.375"/>
<feComposite in2="hardAlpha" operator="arithmetic" k2="-1" k3="1"/>
<feColorMatrix type="matrix" values="0 0 0 0 1 0 0 0 0 1 0 0 0 0 1 0 0 0 0.14 0"/>
<feBlend mode="normal" in2="shape" result="effect1_innerShadow_1032_7762"/>
<feColorMatrix in="SourceAlpha" type="matrix" values="0 0 0 0 0 0 0 0 0 0 0 0 0 0 0 0 0 0 127 0" result="hardAlpha"/>
<feOffset dx="-0.75" dy="-0.75"/>
<feGaussianBlur stdDeviation="1.5"/>
<feComposite in2="hardAlpha" operator="arithmetic" k2="-1" k3="1"/>
<feColorMatrix type="matrix" values="0 0 0 0 0 0 0 0 0 0 0 0 0 0 0 0 0 0 0.3 0"/>
<feBlend mode="normal" in2="effect1_innerShadow_1032_7762" result="effect2_innerShadow_1032_7762"/>
</filter>
<filter id="filter1_di_1032_7762" x="38.2205" y="31.4543" width="8.39496" height="18.3496" filterUnits="userSpaceOnUse" color-interpolation-filters="sRGB">
<feFlood flood-opacity="0" result="BackgroundImageFix"/>
<feColorMatrix in="SourceAlpha" type="matrix" values="0 0 0 0 0 0 0 0 0 0 0 0 0 0 0 0 0 0 127 0" result="hardAlpha"/>
<feOffset dx="-0.2" dy="-0.2"/>
<feGaussianBlur stdDeviation="0.25"/>
<feComposite in2="hardAlpha" operator="out"/>
<feColorMatrix type="matrix" values="0 0 0 0 0 0 0 0 0 0 0 0 0 0 0 0 0 0 0.05 0"/>
<feBlend mode="normal" in2="BackgroundImageFix" result="effect1_dropShadow_1032_7762"/>
<feBlend mode="normal" in="SourceGraphic" in2="effect1_dropShadow_1032_7762" result="shape"/>
<feColorMatrix in="SourceAlpha" type="matrix" values="0 0 0 0 0 0 0 0 0 0 0 0 0 0 0 0 0 0 127 0" result="hardAlpha"/>
<feOffset dx="0.0738347" dy="0.0738347"/>
<feGaussianBlur stdDeviation="0.0738347"/>
<feComposite in2="hardAlpha" operator="arithmetic" k2="-1" k3="1"/>
<feColorMatrix type="matrix" values="0 0 0 0 0 0 0 0 0 0 0 0 0 0 0 0 0 0 0.29 0"/>
<feBlend mode="overlay" in2="shape" result="effect2_innerShadow_1032_7762"/>
</filter>
<linearGradient id="paint0_linear_1032_7762" x1="30.1243" y1="5" x2="30.1243" y2="55" gradientUnits="userSpaceOnUse">
<stop stop-color="#5C70B6"/>
<stop offset="1" stop-color="#45579A"/>
</linearGradient>
<linearGradient id="paint1_linear_1032_7762" x1="30.1243" y1="5" x2="30.1243" y2="55" gradientUnits="userSpaceOnUse">
<stop stop-color="white"/>
<stop offset="1" stop-color="white"/>
</linearGradient>
<linearGradient id="paint2_linear_1032_7762" x1="32.1069" y1="23.8923" x2="44.5387" y2="11.8114" gradientUnits="userSpaceOnUse">
<stop stop-color="#CBCBCB"/>
<stop offset="1" stop-color="#95A6E6"/>
</linearGradient>
<linearGradient id="paint3_linear_1032_7762" x1="41.1156" y1="14.2523" x2="32.1069" y2="23.8923" gradientUnits="userSpaceOnUse">
<stop offset="0.1465" stop-color="white" stop-opacity="0"/>
<stop offset="1" stop-color="white"/>
</linearGradient>
<linearGradient id="paint4_linear_1032_7762" x1="33.5818" y1="28.9121" x2="24.0743" y2="43.2345" gradientUnits="userSpaceOnUse">
<stop stop-color="white" stop-opacity="0.3"/>
<stop offset="0.683479" stop-color="white"/>
</linearGradient>
<linearGradient id="paint5_linear_1032_7762" x1="20.8549" y1="40.2324" x2="20.8549" y2="50.9368" gradientUnits="userSpaceOnUse">
<stop stop-color="white"/>
<stop offset="1" stop-color="white" stop-opacity="0.3"/>
</linearGradient>
<clipPath id="clip0_1032_7762">
<rect width="60" height="60" fill="white" transform="translate(0.125)"/>
</clipPath>
</defs>
</svg>
