<svg width="100" height="100" viewBox="0 0 100 100" fill="none" xmlns="http://www.w3.org/2000/svg">
<rect width="100" height="100" rx="7" fill="#B6B8B9"/>
<path d="M50.5573 83.9999C51.6692 83.9999 52.9996 83.794 54.5485 83.3823C59.7774 81.4167 62.3919 77.6315 62.3919 72.0268V55.9897C62.3919 55.6843 62.372 55.4186 62.3323 55.1929C62.3323 55.153 62.329 55.1265 62.3224 55.1132C62.3158 55.0999 62.2992 55.0733 62.2728 55.0335C61.73 53.6655 60.8695 52.9815 59.6914 52.9815H59.5325L59.195 53.0015H59.0162C58.9765 53.0015 58.9302 53.0214 58.8773 53.0612C57.5138 53.5925 56.832 54.7147 56.832 56.428V72.8636C56.832 73.7534 56.607 74.6233 56.1569 75.4733C54.886 77.4788 52.9996 78.4815 50.4977 78.4815C48.6047 78.4815 47.0029 77.8905 45.6923 76.7085C44.6201 75.8319 44.0707 74.2183 44.0442 71.8675L44.0045 55.7108C44.0045 55.5647 43.9913 55.412 43.9648 55.2526C43.9648 55.1995 43.9615 55.163 43.9549 55.1431C43.9483 55.1231 43.9251 55.0866 43.8854 55.0335C43.3294 53.639 42.4491 52.9417 41.2444 52.9417C40.8605 52.9815 40.6024 53.028 40.47 53.0811C39.1462 53.6124 38.4843 54.5089 38.4843 55.7706L38.5439 72.5249C38.5571 75.0218 39.2455 77.2729 40.609 79.2784C43.1507 82.4261 46.4403 83.9999 50.4778 83.9999H50.5573Z" fill="white"/>
<path fill-rule="evenodd" clip-rule="evenodd" d="M31.5321 42.6013C28.4984 42.6013 26.6398 43.4913 25.4579 44.8902C24.4897 46.0361 22.7789 46.1776 21.6368 45.2062C20.4946 44.2349 20.3536 42.5185 21.3218 41.3726C23.8011 38.4381 27.3707 37.1613 31.5321 37.1613C35.0293 37.1613 38.2346 38.0524 41.0792 39.8477C44.0264 38.095 47.1316 37.1613 50.3664 37.1613C53.5292 37.1613 56.5152 38.0545 59.2908 39.7538C61.7683 38.0803 64.742 37.3113 68.0555 37.3113C72.2113 37.3113 75.8717 38.5186 78.8464 41.0607C79.9862 42.0348 80.1232 43.7515 79.1523 44.8951C78.1814 46.0387 76.4703 46.1761 75.3304 45.202C73.4683 43.6107 71.1068 42.7513 68.0555 42.7513C65.173 42.7513 63.1013 43.5164 61.5874 44.8274C60.4033 45.8529 58.6734 45.9321 57.4012 45.019L57.3533 44.9846C55.0614 43.3521 52.7492 42.6013 50.3664 42.6013C47.9406 42.6013 45.4774 43.3804 42.9353 45.1059C41.7418 45.9161 40.1681 45.8805 39.0122 45.0172L38.9282 44.9545C36.8009 43.392 34.3681 42.6013 31.5321 42.6013Z" fill="white"/>
<path fill-rule="evenodd" clip-rule="evenodd" d="M65.4016 27.1896C61.4478 23.7491 56.3505 22.0013 49.8758 22.1261C43.3707 22.2515 38.3188 24.1271 34.4848 27.5682C30.6184 31.0384 27.7346 36.3313 26.0318 43.7426C25.6954 45.2064 24.24 46.1196 22.781 45.7821C21.3219 45.4447 20.4118 43.9845 20.7481 42.5207C22.6171 34.3862 25.9248 27.952 30.8696 23.5138C35.8469 19.0466 42.2259 16.8326 49.7716 16.6871C57.3476 16.5411 63.8199 18.6121 68.9543 23.0799C74.0442 27.509 77.5642 34.071 79.7141 42.4539C80.0872 43.9087 79.2141 45.3915 77.7641 45.7659C76.314 46.1402 74.836 45.2643 74.4629 43.8094C72.487 36.1047 69.4 30.6688 65.4016 27.1896Z" fill="white"/>
</svg>
