<svg width="60" height="84" viewBox="0 0 60 84" fill="none" xmlns="http://www.w3.org/2000/svg">
<rect width="60" height="60" rx="30" fill="#EEEEFF"/>
<rect x="29" y="60" width="1" height="24" fill="#EEEEFF"/>
<path d="M39.3472 24.843C40.6806 24.0732 40.6806 22.1487 39.3472 21.3789L31.0304 16.5773C30.4116 16.2201 29.6493 16.2201 29.0305 16.5773L20.7139 21.3789C19.3805 22.1487 19.3805 24.0732 20.7138 24.843L29.0304 29.6447C29.6493 30.0019 30.4117 30.0019 31.0305 29.6447L39.3472 24.843Z" fill="#5351FB"/>
<path d="M30.9243 42.5359C30.9243 44.0755 32.591 45.0378 33.9243 44.268L42.2443 39.4644C42.8631 39.1072 43.2443 38.4469 43.2443 37.7324V28.1218C43.2443 26.5822 41.5777 25.6199 40.2444 26.3897L31.9243 31.1931C31.3055 31.5504 30.9243 32.2106 30.9243 32.9252V42.5359Z" fill="#5351FB"/>
<path d="M19.8164 26.3897C18.4831 25.6199 16.8164 26.5822 16.8164 28.1218V37.7324C16.8164 38.4469 17.1976 39.1072 17.8164 39.4644L26.1362 44.268C27.4695 45.0378 29.1362 44.0755 29.1362 42.5359V32.9252C29.1362 32.2106 28.755 31.5504 28.1362 31.1931L19.8164 26.3897Z" fill="#5351FB"/>
</svg>
