<svg
  width="18"
  height="18"
  viewBox="0 0 18 18"
  fill="none"
  xmlns="http://www.w3.org/2000/svg"
>
  <path
    fill-rule="evenodd"
    clip-rule="evenodd"
    d="M13.6003 4.44197C13.3562 4.19789 12.9605 4.19789 12.7164 4.44197L9.02116 8.1372L5.32596 4.442C5.08188 4.19792 4.68615 4.19792 4.44207 4.442C4.198 4.68607 4.198 5.0818 4.44207 5.32588L8.13728 9.02109L4.44185 12.7165C4.19777 12.9606 4.19777 13.3563 4.44185 13.6004C4.68592 13.8445 5.08165 13.8445 5.32573 13.6004L9.02116 9.90497L12.7166 13.6004C12.9607 13.8445 13.3564 13.8445 13.6005 13.6004C13.8446 13.3563 13.8446 12.9606 13.6005 12.7165L9.90505 9.02109L13.6003 5.32585C13.8444 5.08178 13.8444 4.68605 13.6003 4.44197Z"
    fill="#6c757d"
  />
</svg>