<svg width="66" height="66" viewBox="0 0 66 66" fill="none" xmlns="http://www.w3.org/2000/svg">
<rect width="66" height="66" rx="12" fill="url(#paint0_linear)"/>
<g clip-path="url(#clip0)">
<path d="M45.1912 28.4683C45.1193 28.3413 45.0149 28.2357 44.8888 28.1622C44.7627 28.0887 44.6194 28.05 44.4735 28.05H33.6659L35.4779 14.2059C35.4973 14.0206 35.4538 13.8342 35.3544 13.6766C35.255 13.519 35.1055 13.3995 34.9299 13.3372C34.7543 13.275 34.5629 13.2736 34.3864 13.3334C34.21 13.3932 34.0588 13.5106 33.9572 13.6667L20.8141 36.6929C20.7372 36.8179 20.6951 36.9612 20.6921 37.1079C20.689 37.2546 20.7252 37.3995 20.7968 37.5275C20.8684 37.6556 20.9728 37.7623 21.0994 37.8366C21.226 37.9108 21.3701 37.95 21.5168 37.95H32.1628L30.7269 51.815C30.7128 51.9996 30.7608 52.1837 30.8634 52.3378C30.9659 52.492 31.1171 52.6075 31.2929 52.6658C31.4686 52.7242 31.6588 52.7221 31.8332 52.6599C32.0077 52.5977 32.1563 52.4789 32.2554 52.3225L45.1813 29.2988C45.2563 29.1736 45.2967 29.0308 45.2984 28.8849C45.3001 28.739 45.2632 28.5952 45.1912 28.4683Z" fill="white"/>
</g>
<defs>
<linearGradient id="paint0_linear" x1="3.3" y1="2.64" x2="63.03" y2="66" gradientUnits="userSpaceOnUse">
<stop stop-color="#FF6E40"/>
<stop offset="1" stop-color="#FFE458"/>
</linearGradient>
<clipPath id="clip0">
<rect x="13.2002" y="13.2002" width="39.6" height="39.6" fill="white"/>
</clipPath>
</defs>
</svg>
