<svg xmlns="http://www.w3.org/2000/svg" width="100" height="100" fill="none">
  <mask id="a" width="100" height="100" x="0" y="0" maskUnits="userSpaceOnUse" style="mask-type:alpha">
    <path fill="#ffffff77" d="M0 0h100v100H0z"/>
  </mask>
  <g mask="url(#a)">
    <path fill="#ffffff77" fill-rule="evenodd" d="M100.354.354 93.207 7.5H100v1h-7.5v24h7.5v1h-7.5v33h7.5v1h-7.5v24h7.5v1h-6.793l7.147 7.147-.707.707-7.147-7.147V100h-1v-7.5h-24v7.5h-1v-7.5h-33v7.5h-1v-7.5h-24v7.5h-1v-6.793l-7.146 7.147-.708-.707L6.793 92.5H0v-1h7.5v-24H0v-1h7.5v-33H0v-1h7.5v-24H0v-1h6.793L-.354.354l.708-.708L7.5 6.793V0h1v7.5h24V0h1v7.5h33V0h1v7.5h24V0h1v6.793l7.147-7.147.707.708ZM8.5 9.207V32.5h3.308a42.085 42.085 0 0 1 8.142-11.843L8.5 9.207ZM20.657 19.95 9.207 8.5H32.5v3.308a42.085 42.085 0 0 0-11.843 8.142Zm0 1.414A41.093 41.093 0 0 0 12.912 32.5h18.88L20.658 21.364ZM32.5 31.793 21.364 20.657A41.093 41.093 0 0 1 32.5 12.912v18.88Zm1 2.414v11.684a16.968 16.968 0 0 1 4.13-7.553l-4.13-4.13Zm4.838 3.424-4.13-4.131H45.89a16.968 16.968 0 0 0-7.553 4.13Zm0 1.414A15.944 15.944 0 0 0 34 50c0 4.239 1.648 8.092 4.338 10.955L49.293 50 38.338 39.045ZM50 49.293 39.045 38.338A15.944 15.944 0 0 1 50 34c4.239 0 8.092 1.648 10.955 4.338L50 49.293Zm0 1.414L39.045 61.662A15.944 15.944 0 0 0 50 66c4.239 0 8.092-1.648 10.955-4.338L50 50.707Zm11.662 10.248L50.707 50l10.955-10.955A15.944 15.944 0 0 1 66 50c0 4.239-1.648 8.092-4.338 10.955Zm0 1.414A16.967 16.967 0 0 1 54.11 66.5h11.684l-4.13-4.13Zm4.838 3.424-4.13-4.13a16.967 16.967 0 0 0 4.13-7.554v11.684Zm1 2.414v18.881a41.09 41.09 0 0 0 11.136-7.745L67.5 68.207Zm11.843 10.429L68.207 67.5h18.881a41.09 41.09 0 0 1-7.745 11.136Zm0 1.414A42.082 42.082 0 0 1 67.5 88.192V91.5h23.293l-11.45-11.45ZM91.5 90.793l-11.45-11.45A42.082 42.082 0 0 0 88.192 67.5H91.5v23.293ZM67.5 8.5h23.293l-11.45 11.45A42.084 42.084 0 0 0 67.5 11.808V8.5Zm24 .707-11.45 11.45A42.083 42.083 0 0 1 88.192 32.5H91.5V9.207Zm-24 3.705a41.092 41.092 0 0 1 11.136 7.745L67.5 31.793V12.912Zm11.843 8.452L68.207 32.5h18.881a41.091 41.091 0 0 0-7.745-11.136ZM54.109 33.5h11.684l-4.13 4.13a16.968 16.968 0 0 0-7.554-4.13Zm12.391.707-4.13 4.13a16.967 16.967 0 0 1 4.13 7.554V34.207Zm-33 19.902a16.968 16.968 0 0 0 4.13 7.553l-4.13 4.13V54.11Zm4.838 8.26-4.13 4.131H45.89a16.967 16.967 0 0 1-7.553-4.13ZM12.912 67.5h18.88L20.658 78.636A41.092 41.092 0 0 1 12.912 67.5Zm19.588.707L21.364 79.343A41.091 41.091 0 0 0 32.5 87.088v-18.88ZM11.808 67.5a42.084 42.084 0 0 0 8.142 11.843L8.5 90.793V67.5h3.308Zm8.85 12.55L9.207 91.5H32.5v-3.308a42.083 42.083 0 0 1-11.843-8.142ZM88.634 33.5H91.5v10a41.696 41.696 0 0 0-2.865-10ZM66.5 11.365V8.5h-10a41.7 41.7 0 0 1 10 2.865ZM43.5 8.5h-10v2.865a41.702 41.702 0 0 1 10-2.865Zm-10 3.955A40.86 40.86 0 0 1 50 9a40.86 40.86 0 0 1 16.5 3.455v18.763A24.905 24.905 0 0 0 50 25a24.905 24.905 0 0 0-16.5 6.218V12.455ZM11.365 33.5H8.5v10a41.702 41.702 0 0 1 2.865-10ZM8.5 56.5v10h2.865a41.7 41.7 0 0 1-2.865-10Zm3.955 10A40.86 40.86 0 0 1 9 50a40.86 40.86 0 0 1 3.455-16.5h18.763A24.905 24.905 0 0 0 25 50a24.905 24.905 0 0 0 6.218 16.5H12.455ZM33.5 88.635V91.5h10a41.696 41.696 0 0 1-10-2.865Zm23 2.865h10v-2.865a41.694 41.694 0 0 1-10 2.865Zm10-3.955A40.86 40.86 0 0 1 50 91a40.86 40.86 0 0 1-16.5-3.455V68.782A24.905 24.905 0 0 0 50 75a24.904 24.904 0 0 0 16.5-6.218v18.763ZM87.545 66.5H68.782A24.904 24.904 0 0 0 75 50a24.905 24.905 0 0 0-6.218-16.5h18.763A40.86 40.86 0 0 1 91 50a40.86 40.86 0 0 1-3.455 16.5Zm1.09 0H91.5v-10a41.694 41.694 0 0 1-2.865 10Zm-55.06-34A23.917 23.917 0 0 1 50 26c6.354 0 12.13 2.47 16.424 6.5H33.576ZM32.5 66.424A23.917 23.917 0 0 1 26 50c0-6.354 2.47-12.13 6.5-16.424v32.848ZM66.424 67.5A23.916 23.916 0 0 1 50 74a23.916 23.916 0 0 1-16.424-6.5h32.848ZM67.5 33.576A23.916 23.916 0 0 1 74 50c0 6.354-2.469 12.13-6.5 16.424V33.576Z" clip-rule="evenodd"/>
  </g>
</svg>