<svg width="27" height="25" viewBox="0 0 27 25" fill="none" xmlns="http://www.w3.org/2000/svg">
<g id="chip-icon">
<g id="Vector" filter="url(#filter0_dd_2_444)">
<path d="M7.94743 2.27878C7.70507 2.27878 7.50837 2.47095 7.50837 2.70773V3.56564C7.50837 3.80243 7.70507 3.9946 7.94743 3.9946H8.82555C9.06791 3.9946 9.2646 3.80243 9.2646 3.56564V2.70773C9.2646 2.47095 9.06791 2.27878 8.82555 2.27878H7.94743ZM11.4599 2.27878C11.2175 2.27878 11.0208 2.47095 11.0208 2.70773V3.56564C11.0208 3.80243 11.2175 3.9946 11.4599 3.9946H12.338C12.5804 3.9946 12.7771 3.80243 12.7771 3.56564V2.70773C12.7771 2.47095 12.5804 2.27878 12.338 2.27878H11.4599ZM14.9724 2.27878C14.73 2.27878 14.5333 2.47095 14.5333 2.70773V3.56564C14.5333 3.80243 14.73 3.9946 14.9724 3.9946H15.8505C16.0928 3.9946 16.2895 3.80243 16.2895 3.56564V2.70773C16.2895 2.47095 16.0928 2.27878 15.8505 2.27878H14.9724ZM18.4848 2.27878C18.2425 2.27878 18.0458 2.47095 18.0458 2.70773V3.56564C18.0458 3.80243 18.2425 3.9946 18.4848 3.9946H19.3629C19.6053 3.9946 19.802 3.80243 19.802 3.56564V2.70773C19.802 2.47095 19.6053 2.27878 19.3629 2.27878H18.4848ZM6.63026 4.85251C5.66169 4.85251 4.87402 5.62205 4.87402 6.56833V13.4316C4.87402 14.3779 5.66169 15.1474 6.63026 15.1474H20.6801C21.6487 15.1474 22.4363 14.3779 22.4363 13.4316V6.56833C22.4363 5.62205 21.6487 4.85251 20.6801 4.85251H6.63026ZM7.50837 6.56833C7.99309 6.56833 8.38649 6.95267 8.38649 7.42624C8.38649 7.89981 7.99309 8.28415 7.50837 8.28415C7.02365 8.28415 6.63026 7.89981 6.63026 7.42624C6.63026 6.95267 7.02365 6.56833 7.50837 6.56833ZM19.802 11.7158C20.2867 11.7158 20.6801 12.1001 20.6801 12.5737C20.6801 13.0473 20.2867 13.4316 19.802 13.4316C19.3173 13.4316 18.9239 13.0473 18.9239 12.5737C18.9239 12.1001 19.3173 11.7158 19.802 11.7158ZM7.94743 16.0053C7.70507 16.0053 7.50837 16.1975 7.50837 16.4343V17.2922C7.50837 17.529 7.70507 17.7212 7.94743 17.7212H8.82555C9.06791 17.7212 9.2646 17.529 9.2646 17.2922V16.4343C9.2646 16.1975 9.06791 16.0053 8.82555 16.0053H7.94743ZM11.4599 16.0053C11.2175 16.0053 11.0208 16.1975 11.0208 16.4343V17.2922C11.0208 17.529 11.2175 17.7212 11.4599 17.7212H12.338C12.5804 17.7212 12.7771 17.529 12.7771 17.2922V16.4343C12.7771 16.1975 12.5804 16.0053 12.338 16.0053H11.4599ZM14.9724 16.0053C14.73 16.0053 14.5333 16.1975 14.5333 16.4343V17.2922C14.5333 17.529 14.73 17.7212 14.9724 17.7212H15.8505C16.0928 17.7212 16.2895 17.529 16.2895 17.2922V16.4343C16.2895 16.1975 16.0928 16.0053 15.8505 16.0053H14.9724ZM18.4848 16.0053C18.2425 16.0053 18.0458 16.1975 18.0458 16.4343V17.2922C18.0458 17.529 18.2425 17.7212 18.4848 17.7212H19.3629C19.6053 17.7212 19.802 17.529 19.802 17.2922V16.4343C19.802 16.1975 19.6053 16.0053 19.3629 16.0053H18.4848Z" fill="url(#paint0_linear_2_444)" shape-rendering="crispEdges"/>
</g>
</g>
<defs>
<filter id="filter0_dd_2_444" x="0.679149" y="0.181341" width="25.952" height="23.8321" filterUnits="userSpaceOnUse" color-interpolation-filters="sRGB">
<feFlood flood-opacity="0" result="BackgroundImageFix"/>
<feColorMatrix in="SourceAlpha" type="matrix" values="0 0 0 0 0 0 0 0 0 0 0 0 0 0 0 0 0 0 127 0" result="hardAlpha"/>
<feOffset/>
<feGaussianBlur stdDeviation="0.996283"/>
<feComposite in2="hardAlpha" operator="out"/>
<feColorMatrix type="matrix" values="0 0 0 0 1 0 0 0 0 1 0 0 0 0 1 0 0 0 0.24 0"/>
<feBlend mode="normal" in2="BackgroundImageFix" result="effect1_dropShadow_2_444"/>
<feColorMatrix in="SourceAlpha" type="matrix" values="0 0 0 0 0 0 0 0 0 0 0 0 0 0 0 0 0 0 127 0" result="hardAlpha"/>
<feOffset dy="2.09744"/>
<feGaussianBlur stdDeviation="2.09744"/>
<feComposite in2="hardAlpha" operator="out"/>
<feColorMatrix type="matrix" values="0 0 0 0 0 0 0 0 0 0 0 0 0 0 0 0 0 0 0.24 0"/>
<feBlend mode="normal" in2="effect1_dropShadow_2_444" result="effect2_dropShadow_2_444"/>
<feBlend mode="normal" in="SourceGraphic" in2="effect2_dropShadow_2_444" result="shape"/>
</filter>
<linearGradient id="paint0_linear_2_444" x1="4.87402" y1="2.27878" x2="20.872" y2="19.2001" gradientUnits="userSpaceOnUse">
<stop offset="0.213542" stop-color="white"/>
<stop offset="1" stop-color="white" stop-opacity="0.8"/>
</linearGradient>
</defs>
</svg>
