<svg width="31" height="31" viewBox="0 0 31 31" fill="none" xmlns="http://www.w3.org/2000/svg">
<g id="disk-icon">
<g id="Vector" filter="url(#filter0_dd_2_438)">
<path d="M8.49638 3.94533C7.82026 3.94533 7.30322 4.44395 7.30322 5.09599V18.904C7.30322 19.556 7.82026 20.0546 8.49638 20.0546H22.8143C23.4904 20.0546 24.0075 19.556 24.0075 18.904V7.47373C24.0075 7.35866 23.9674 7.28225 23.8878 7.20554L20.6268 4.06069C20.5473 3.98398 20.4681 3.94533 20.3487 3.94533H8.49638ZM10.485 4.71244H20.0303V9.31509C20.0303 9.737 19.6723 10.0822 19.2348 10.0822H11.2804C10.8429 10.0822 10.485 9.737 10.485 9.31509V4.71244ZM16.8485 5.8631V8.93154H18.4394V5.8631H16.8485ZM11.2804 12.7671H20.0303C20.4677 12.7671 20.8257 13.1123 20.8257 13.5342V19.2875H10.485V13.5342C10.485 13.1123 10.8429 12.7671 11.2804 12.7671ZM8.49638 18.1368H9.29182V18.904H8.49638V18.1368ZM22.0189 18.1368H22.8143V18.904H22.0189V18.1368Z" fill="url(#paint0_linear_2_438)" shape-rendering="crispEdges"/>
</g>
</g>
<defs>
<filter id="filter0_dd_2_438" x="0.520365" y="0.553899" width="30.2701" height="29.675" filterUnits="userSpaceOnUse" color-interpolation-filters="sRGB">
<feFlood flood-opacity="0" result="BackgroundImageFix"/>
<feColorMatrix in="SourceAlpha" type="matrix" values="0 0 0 0 0 0 0 0 0 0 0 0 0 0 0 0 0 0 127 0" result="hardAlpha"/>
<feOffset/>
<feGaussianBlur stdDeviation="1.61093"/>
<feComposite in2="hardAlpha" operator="out"/>
<feColorMatrix type="matrix" values="0 0 0 0 1 0 0 0 0 1 0 0 0 0 1 0 0 0 0.24 0"/>
<feBlend mode="normal" in2="BackgroundImageFix" result="effect1_dropShadow_2_438"/>
<feColorMatrix in="SourceAlpha" type="matrix" values="0 0 0 0 0 0 0 0 0 0 0 0 0 0 0 0 0 0 127 0" result="hardAlpha"/>
<feOffset dy="3.39143"/>
<feGaussianBlur stdDeviation="3.39143"/>
<feComposite in2="hardAlpha" operator="out"/>
<feColorMatrix type="matrix" values="0 0 0 0 0 0 0 0 0 0 0 0 0 0 0 0 0 0 0.24 0"/>
<feBlend mode="normal" in2="effect1_dropShadow_2_438" result="effect2_dropShadow_2_438"/>
<feBlend mode="normal" in="SourceGraphic" in2="effect2_dropShadow_2_438" result="shape"/>
</filter>
<linearGradient id="paint0_linear_2_438" x1="7.30322" y1="3.94533" x2="24.0074" y2="20.0546" gradientUnits="userSpaceOnUse">
<stop offset="0.213542" stop-color="white"/>
<stop offset="1" stop-color="white" stop-opacity="0.8"/>
</linearGradient>
</defs>
</svg>
