<svg width="21" height="20" viewBox="0 0 21 20" fill="none" xmlns="http://www.w3.org/2000/svg">
<g id="icons8-wind-1" clip-path="url(#clip0_2_430)">
<g id="Vector (Stroke)" filter="url(#filter0_dd_2_430)">
<path fill-rule="evenodd" clip-rule="evenodd" d="M7.61923 3.71563C8.09313 2.75038 9.08709 2.0833 10.2385 2.0833C11.8492 2.0833 13.1552 3.38931 13.1552 4.99997C13.1552 6.61062 11.8492 7.91664 10.2385 7.91664H4.8227L4.82186 7.0833L4.82191 6.24997H10.2385C10.9287 6.24997 11.4885 5.69015 11.4885 4.99997C11.4885 4.30979 10.9287 3.74997 10.2385 3.74997C9.74662 3.74997 9.31976 4.03372 9.11532 4.45014C8.91249 4.86327 8.41315 5.03376 8.00002 4.83093C7.58689 4.6281 7.4164 4.12876 7.61923 3.71563ZM3.98853 7.0833C3.98853 6.62306 4.36167 6.24997 4.82191 6.24997L4.82186 7.0833L4.8227 7.91664C4.36247 7.91664 3.98853 7.54354 3.98853 7.0833Z" fill="url(#paint0_linear_2_430)" shape-rendering="crispEdges"/>
</g>
<g id="Vector (Stroke)_2" filter="url(#filter1_dd_2_430)">
<path fill-rule="evenodd" clip-rule="evenodd" d="M2.32202 10.4166C2.32202 9.9564 2.69512 9.58331 3.15535 9.58331V10.4166V11.25C2.69512 11.25 2.32202 10.8769 2.32202 10.4166ZM3.15535 10.4166C3.15535 11.25 3.15527 11.25 3.15535 11.25H16.072C17.4526 11.25 18.572 12.3694 18.572 13.75C18.572 15.1306 17.4526 16.25 16.072 16.25C15.0873 16.25 14.2342 15.6809 13.8264 14.8499C13.6236 14.4368 13.1243 14.2662 12.7111 14.469C12.298 14.6717 12.1274 15.171 12.3302 15.5842C13.0074 16.9641 14.4276 17.9166 16.072 17.9166C18.3731 17.9166 20.2387 16.051 20.2387 13.75C20.2387 11.4489 18.3731 9.58331 16.072 9.58331H3.15535C3.15527 9.58331 3.15535 9.58331 3.15535 10.4166Z" fill="url(#paint1_linear_2_430)" shape-rendering="crispEdges"/>
</g>
<g id="Vector (Stroke)_3" filter="url(#filter2_dd_2_430)">
<path fill-rule="evenodd" clip-rule="evenodd" d="M1.07202 13.75C1.07202 13.2897 1.44512 12.9166 1.90535 12.9166V13.75V14.5833C1.44512 14.5833 1.07202 14.2102 1.07202 13.75ZM1.90535 13.75V14.5833H7.32202C8.0122 14.5833 8.57202 15.1431 8.57202 15.8333C8.57202 16.5235 8.0122 17.0833 7.32202 17.0833C6.83012 17.0833 6.40325 16.7995 6.19881 16.3831C5.99599 15.97 5.49665 15.7995 5.08352 16.0023C4.67038 16.2052 4.4999 16.7045 4.70273 17.1176C5.17662 18.0829 6.17059 18.75 7.32202 18.75C8.93268 18.75 10.2387 17.444 10.2387 15.8333C10.2387 14.2227 8.93268 12.9166 7.32202 12.9166H1.90535V13.75Z" fill="url(#paint2_linear_2_430)" shape-rendering="crispEdges"/>
</g>
</g>
<defs>
<filter id="filter0_dd_2_430" x="-4.43253" y="-2.12722" width="26.0089" height="22.6754" filterUnits="userSpaceOnUse" color-interpolation-filters="sRGB">
<feFlood flood-opacity="0" result="BackgroundImageFix"/>
<feColorMatrix in="SourceAlpha" type="matrix" values="0 0 0 0 0 0 0 0 0 0 0 0 0 0 0 0 0 0 127 0" result="hardAlpha"/>
<feOffset/>
<feGaussianBlur stdDeviation="2"/>
<feComposite in2="hardAlpha" operator="out"/>
<feColorMatrix type="matrix" values="0 0 0 0 1 0 0 0 0 1 0 0 0 0 1 0 0 0 0.24 0"/>
<feBlend mode="normal" in2="BackgroundImageFix" result="effect1_dropShadow_2_430"/>
<feColorMatrix in="SourceAlpha" type="matrix" values="0 0 0 0 0 0 0 0 0 0 0 0 0 0 0 0 0 0 127 0" result="hardAlpha"/>
<feOffset dy="4.21053"/>
<feGaussianBlur stdDeviation="4.21053"/>
<feComposite in2="hardAlpha" operator="out"/>
<feColorMatrix type="matrix" values="0 0 0 0 0 0 0 0 0 0 0 0 0 0 0 0 0 0 0.24 0"/>
<feBlend mode="normal" in2="effect1_dropShadow_2_430" result="effect2_dropShadow_2_430"/>
<feBlend mode="normal" in="SourceGraphic" in2="effect2_dropShadow_2_430" result="shape"/>
</filter>
<filter id="filter1_dd_2_430" x="-6.09903" y="5.37278" width="34.7589" height="25.1754" filterUnits="userSpaceOnUse" color-interpolation-filters="sRGB">
<feFlood flood-opacity="0" result="BackgroundImageFix"/>
<feColorMatrix in="SourceAlpha" type="matrix" values="0 0 0 0 0 0 0 0 0 0 0 0 0 0 0 0 0 0 127 0" result="hardAlpha"/>
<feOffset/>
<feGaussianBlur stdDeviation="2"/>
<feComposite in2="hardAlpha" operator="out"/>
<feColorMatrix type="matrix" values="0 0 0 0 1 0 0 0 0 1 0 0 0 0 1 0 0 0 0.24 0"/>
<feBlend mode="normal" in2="BackgroundImageFix" result="effect1_dropShadow_2_430"/>
<feColorMatrix in="SourceAlpha" type="matrix" values="0 0 0 0 0 0 0 0 0 0 0 0 0 0 0 0 0 0 127 0" result="hardAlpha"/>
<feOffset dy="4.21053"/>
<feGaussianBlur stdDeviation="4.21053"/>
<feComposite in2="hardAlpha" operator="out"/>
<feColorMatrix type="matrix" values="0 0 0 0 0 0 0 0 0 0 0 0 0 0 0 0 0 0 0.24 0"/>
<feBlend mode="normal" in2="effect1_dropShadow_2_430" result="effect2_dropShadow_2_430"/>
<feBlend mode="normal" in="SourceGraphic" in2="effect2_dropShadow_2_430" result="shape"/>
</filter>
<filter id="filter2_dd_2_430" x="-7.34903" y="8.70611" width="26.0089" height="22.6754" filterUnits="userSpaceOnUse" color-interpolation-filters="sRGB">
<feFlood flood-opacity="0" result="BackgroundImageFix"/>
<feColorMatrix in="SourceAlpha" type="matrix" values="0 0 0 0 0 0 0 0 0 0 0 0 0 0 0 0 0 0 127 0" result="hardAlpha"/>
<feOffset/>
<feGaussianBlur stdDeviation="2"/>
<feComposite in2="hardAlpha" operator="out"/>
<feColorMatrix type="matrix" values="0 0 0 0 1 0 0 0 0 1 0 0 0 0 1 0 0 0 0.24 0"/>
<feBlend mode="normal" in2="BackgroundImageFix" result="effect1_dropShadow_2_430"/>
<feColorMatrix in="SourceAlpha" type="matrix" values="0 0 0 0 0 0 0 0 0 0 0 0 0 0 0 0 0 0 127 0" result="hardAlpha"/>
<feOffset dy="4.21053"/>
<feGaussianBlur stdDeviation="4.21053"/>
<feComposite in2="hardAlpha" operator="out"/>
<feColorMatrix type="matrix" values="0 0 0 0 0 0 0 0 0 0 0 0 0 0 0 0 0 0 0.24 0"/>
<feBlend mode="normal" in2="effect1_dropShadow_2_430" result="effect2_dropShadow_2_430"/>
<feBlend mode="normal" in="SourceGraphic" in2="effect2_dropShadow_2_430" result="shape"/>
</filter>
<linearGradient id="paint0_linear_2_430" x1="3.98853" y1="2.0833" x2="9.6302" y2="10.3285" gradientUnits="userSpaceOnUse">
<stop offset="0.213542" stop-color="white"/>
<stop offset="1" stop-color="white" stop-opacity="0.8"/>
</linearGradient>
<linearGradient id="paint1_linear_2_430" x1="2.32202" y1="9.58331" x2="9.2403" y2="23.417" gradientUnits="userSpaceOnUse">
<stop offset="0.213542" stop-color="white"/>
<stop offset="1" stop-color="white" stop-opacity="0.8"/>
</linearGradient>
<linearGradient id="paint2_linear_2_430" x1="1.07202" y1="12.9166" x2="6.7137" y2="21.1619" gradientUnits="userSpaceOnUse">
<stop offset="0.213542" stop-color="white"/>
<stop offset="1" stop-color="white" stop-opacity="0.8"/>
</linearGradient>
<clipPath id="clip0_2_430">
<rect width="20" height="20" fill="white" transform="translate(0.655273 -3.05176e-05)"/>
</clipPath>
</defs>
</svg>
