<svg width="256" height="256" viewBox="0 0 256 256" fill="none" xmlns="http://www.w3.org/2000/svg">
<rect width="256" height="256" fill="url(#paint0_linear)"/>
<mask id="mask0" mask-type="alpha" maskUnits="userSpaceOnUse" x="0" y="0" width="256" height="256">
<rect width="256" height="256" fill="url(#paint1_linear)"/>
</mask>
<g mask="url(#mask0)">
<path fill-rule="evenodd" clip-rule="evenodd" d="M64.3568 113.21C72.1844 114.081 77.4308 112.872 85.2587 113.743C85.2587 113.453 92.4829 114.576 93.6356 115.483C102.415 115.483 94.5779 100.849 93.6356 97.1949C92.6537 91.3966 97.7832 83.6072 103.475 82.8264C107.827 82.2296 109.438 82.4578 113.005 84.4519C117.332 88.0956 117.579 90.5577 119.379 95.0608C121.746 100.982 114.753 111.986 122.686 115.61C145.82 124.042 148.264 157.253 147.494 189.884C148.512 197.518 150.734 198.823 155.166 202.362C170.629 213.349 204.919 211.992 221 222.953C220.471 224.481 220.838 223.799 220.161 224.696C219.426 227.066 218.729 227.256 217.645 229.053C216.736 228.261 217.574 229.121 216.806 228.181C201.958 218.569 165.839 217.628 149.857 209.141C149.857 209.431 155.782 214.299 155.782 214.299C164.504 223.347 174.472 242.191 176.751 257C167.486 256.525 151.956 257 141.523 257H67.7118V256.128C71.3461 247.124 79.6846 243.24 83.3189 234.236C85.1395 231.214 91.3432 220.896 93.2764 218.274C96.5898 213.779 105.081 201.619 107.162 195.022C100.862 192.718 90.1559 172.307 87.9519 161.076C72.89 156.777 35.1168 147.446 38.2125 136.852C39.9219 134.412 51.4883 124.005 48.4203 121.924C45.4137 113.383 36.1252 113.62 35 101.881C39.7804 95.6624 36.4924 96.2591 47.5816 94.0379C53.0565 97.2762 59.0191 91.385 59.3242 87.9377C67.0835 84.9964 67.2247 84.0332 67.7118 82.7089C72.1452 82.8353 73.2624 86.6421 73.2624 86.6421C81.9815 84.5132 114.323 71.8908 126.482 68.105C138.642 64.3193 169.313 54.5298 183.074 49.8432C194.279 46.0269 203.717 42.1575 219.141 42V42.8714C218.466 43.7612 219.682 41.3673 219.141 42.8714C210.755 44.6159 200.915 48.5642 193.978 50.7146C175.19 56.5381 140.369 68.4586 122.288 74.2052C115.15 76.4739 71.668 90.8614 75.8987 94.271C72.6142 98.5505 65.1501 106.827 64.3568 113.21V113.21Z" fill="white"/>
</g>
<defs>
<linearGradient id="paint0_linear" x1="128" y1="0" x2="128" y2="256" gradientUnits="userSpaceOnUse">
<stop stop-color="#C12526"/>
<stop offset="1" stop-color="#9D1E1F"/>
</linearGradient>
<linearGradient id="paint1_linear" x1="128" y1="0" x2="128" y2="256" gradientUnits="userSpaceOnUse">
<stop stop-color="#C12526"/>
<stop offset="1" stop-color="#9D1E1F"/>
</linearGradient>
</defs>
</svg>
