<svg width="64" height="64" viewBox="0 0 64 64" fill="none" xmlns="http://www.w3.org/2000/svg">
<path d="M21.9409 3.98226C21.6583 3.99159 21.3529 4.09692 21.0063 4.36892C20.1596 4.04226 19.3383 3.92892 18.6036 4.59292C17.4676 4.44759 17.0996 4.75026 16.8209 5.10359C16.5716 5.10093 14.9583 4.84893 14.2169 5.95426C12.3569 5.73293 11.7689 7.04893 12.4356 8.27294C12.0556 8.86094 11.6623 9.44227 12.5503 10.5649C12.2356 11.1916 12.4303 11.8663 13.1703 12.6876C12.9756 13.5663 13.3596 14.185 14.0489 14.669C13.9196 15.869 15.1503 16.5676 15.5183 16.8156C15.6596 17.517 15.9529 18.177 17.3583 18.5423C17.5903 19.5876 18.4356 19.765 19.2529 19.9863C16.5489 21.557 14.2289 23.625 14.2463 28.6997L13.8503 29.405C10.7489 31.2903 7.9596 37.3517 12.3223 42.2784C12.6076 43.8197 13.0849 44.9264 13.5103 46.1517C14.1476 51.0917 18.3009 53.4051 19.3956 53.6797C21.0023 54.9011 22.7116 56.0624 25.0249 56.8744C27.2063 59.1251 29.5689 59.9824 31.9449 59.9798C31.9796 59.9798 32.0156 59.9811 32.0503 59.9798C34.4249 59.9824 36.7889 59.1237 38.9689 56.8744C41.2823 56.0637 42.9929 54.9024 44.5996 53.6797C45.6943 53.4051 49.8489 51.0917 50.4836 46.1517C50.9089 44.9264 51.3876 43.8197 51.6729 42.2784C56.0343 37.3517 53.2463 31.2903 50.1449 29.405L49.7489 28.6983C49.7649 23.625 47.4436 21.557 44.7409 19.9863C45.5583 19.765 46.4036 19.5863 46.6356 18.541C48.0423 18.1783 48.3356 17.5156 48.4769 16.8143C48.8449 16.5663 50.0743 15.869 49.9476 14.6663C50.6369 14.185 51.0209 13.565 50.8236 12.6876C51.5663 11.8676 51.7596 11.1889 51.4449 10.5649C52.3343 9.44227 51.9396 8.86227 51.5609 8.27294C52.2263 7.04893 51.6396 5.73293 49.7783 5.95426C49.0383 4.84893 47.4236 5.10093 47.1743 5.10359C46.8956 4.75026 46.5263 4.44759 45.3916 4.59292C44.6569 3.92892 43.8356 4.04226 42.9889 4.36892C41.9809 3.57426 41.3143 4.21026 40.5543 4.45159C39.3383 4.05426 39.0583 4.59959 38.4609 4.82093C37.1316 4.53959 36.7289 5.15026 36.0916 5.7956L35.3503 5.78093C33.3463 6.96226 32.3516 9.36761 31.9983 10.6023C31.6463 9.36494 30.6529 6.96093 28.6489 5.78093L27.9076 5.7956C27.2689 5.15026 26.8663 4.53959 25.5369 4.82093C24.9396 4.59959 24.6609 4.05426 23.4423 4.45159C22.9409 4.29292 22.4809 3.96626 21.9409 3.98226Z" fill="#13171A"/>
<path d="M17.9518 9.18029C23.2678 11.9203 26.3585 14.1376 28.0518 16.0256C27.1852 19.5017 22.6625 19.6603 21.0078 19.563C21.3465 19.4043 21.6305 19.2163 21.7292 18.9243C21.3145 18.6296 19.8425 18.8937 18.8145 18.3163C19.2092 18.2336 19.3945 18.1563 19.5785 17.8643C18.6092 17.555 17.5638 17.287 16.9479 16.775C17.2798 16.779 17.5892 16.8483 18.0225 16.5483C17.1532 16.0803 16.2252 15.7096 15.5052 14.9936C15.9545 14.9816 16.4399 14.9883 16.5799 14.8216C15.7852 14.3283 15.1132 13.7816 14.5558 13.1816C15.1852 13.259 15.4505 13.1936 15.6038 13.0816C15.0012 12.467 14.2399 11.9483 13.8785 11.187C14.3452 11.3483 14.7732 11.411 15.0812 11.1723C14.8758 10.7123 14.0012 10.439 13.4958 9.36296C13.9878 9.41096 14.5105 9.47096 14.6145 9.36296C14.3852 8.43362 13.9945 7.91095 13.6105 7.36828C14.6639 7.35495 16.2572 7.37362 16.1852 7.28428L15.5345 6.61895C16.5625 6.34295 17.6158 6.66428 18.3785 6.90295C18.7212 6.63228 18.3718 6.29095 17.9545 5.94161C18.8278 6.05761 19.6172 6.25895 20.3305 6.53495C20.7118 6.19095 20.0825 5.84695 19.7798 5.50428C21.1292 5.75895 21.6998 6.11761 22.2678 6.47761C22.6812 6.08428 22.2918 5.74695 22.0145 5.40161C23.0332 5.77895 23.5558 6.26561 24.1078 6.74695C24.2958 6.49361 24.5838 6.30961 24.2358 5.70161C24.9585 6.11761 25.5025 6.60828 25.9052 7.15762C26.3518 6.87228 26.1718 6.48295 26.1732 6.12428C26.9238 6.73628 27.4012 7.38562 27.9838 8.02162C28.1012 7.93628 28.2038 7.64562 28.2945 7.18695C30.0865 8.92429 32.6172 13.3016 28.9452 15.039C25.8198 12.4576 22.0878 10.5843 17.9518 9.18029ZM46.1612 9.18029C40.8465 11.9203 37.7545 14.1376 36.0625 16.0256C36.9292 19.5017 41.4532 19.6603 43.1065 19.563C42.7678 19.4043 42.4852 19.2163 42.3838 18.9243C42.7998 18.6296 44.2705 18.8937 45.2985 18.3163C44.9038 18.2336 44.7198 18.1563 44.5345 17.8643C45.5065 17.555 46.5532 17.287 47.1665 16.775C46.8345 16.779 46.5252 16.8483 46.0918 16.5483C46.9612 16.0803 47.8892 15.7096 48.6105 14.9936C48.1598 14.9816 47.6758 14.9883 47.5345 14.8216C48.3318 14.3283 49.0012 13.7816 49.5585 13.1816C48.9278 13.259 48.6638 13.1936 48.5118 13.0816C49.1132 12.467 49.8732 11.9483 50.2358 11.187C49.7692 11.3483 49.3425 11.411 49.0358 11.1723C49.2385 10.7123 50.1172 10.439 50.6198 9.36296C50.1278 9.41096 49.6065 9.47096 49.5025 9.36296C49.7318 8.43362 50.1225 7.91095 50.5078 7.36828C49.4558 7.35228 47.8612 7.37362 47.9318 7.28428L48.5825 6.61895C47.5545 6.34295 46.5025 6.66428 45.7385 6.90295C45.3945 6.63228 45.7452 6.29095 46.1625 5.94161C45.2905 6.05761 44.4985 6.25761 43.7865 6.53495C43.4052 6.19095 44.0345 5.84695 44.3385 5.50294C42.9878 5.75761 42.4185 6.11761 41.8492 6.47761C41.4358 6.08428 41.8252 5.74695 42.1025 5.40161C41.0852 5.77895 40.5612 6.26561 40.0092 6.74562C39.8225 6.49361 39.5345 6.30961 39.8825 5.70161C39.1598 6.11628 38.6145 6.60828 38.2132 7.15762C37.7665 6.87095 37.9465 6.48295 37.9438 6.12428C37.1932 6.73628 36.7172 7.38562 36.1332 8.02162C36.0158 7.93628 35.9132 7.64562 35.8238 7.18695C34.0305 8.92429 31.4998 13.3016 35.1732 15.039C38.2945 12.4563 42.0252 10.5843 46.1612 9.18029Z" fill="#43A803"/>
<path d="M38.4971 44.5679C38.5158 47.8119 35.6798 50.4532 32.1638 50.4719C28.6465 50.4879 25.7798 47.8746 25.7625 44.6306C25.7625 44.6092 25.7625 44.5892 25.7625 44.5679C25.7438 41.3239 28.5785 38.6825 32.0958 38.6639C35.6131 38.6479 38.4785 41.2612 38.4971 44.5066C38.4971 44.5266 38.4971 44.5479 38.4971 44.5679ZM28.4438 27.7945C31.0825 29.5225 31.5571 33.4399 29.5065 36.5452C27.4545 39.6505 23.6518 40.7652 21.0131 39.0359C18.3745 37.3065 17.8998 33.3892 19.9505 30.2852C22.0025 27.1798 25.8065 26.0652 28.4438 27.7945ZM35.5678 27.4798C32.9278 29.2065 32.4518 33.1265 34.5038 36.2305C36.5558 39.3372 40.3585 40.4519 42.9958 38.7225C45.6345 36.9932 46.1118 33.0772 44.0598 29.9705C42.0078 26.8665 38.2051 25.7518 35.5678 27.4798ZM15.2571 30.6212C18.1051 29.8572 16.2185 42.4052 13.9011 41.3759C11.3518 39.3239 10.5305 33.3172 15.2571 30.6212ZM48.1798 30.4639C45.3291 29.7012 47.2171 42.2492 49.5345 41.2186C52.0851 39.1665 52.9065 33.1612 48.1798 30.4639ZM38.4998 21.1185C43.4158 20.2865 47.5078 23.2078 47.3425 28.5385C47.1798 30.5839 36.6878 21.4198 38.4998 21.1185ZM24.9158 20.9598C19.9998 20.1318 15.9091 23.0532 16.0745 28.3825C16.2358 30.4279 26.7265 21.2652 24.9158 20.9598ZM31.9771 19.7185C29.0438 19.6412 26.2265 21.8972 26.2198 23.2025C26.2118 24.7892 28.5411 26.4185 31.9971 26.4585C35.5278 26.4838 37.7798 25.1558 37.7931 23.5185C37.8051 21.6612 34.5825 19.6892 31.9771 19.7185ZM32.1571 52.2946C34.7158 52.1826 38.1478 53.1199 38.1558 54.3599C38.1971 55.5666 35.0411 58.2893 31.9878 58.2359C28.8238 58.3733 25.7225 55.6453 25.7638 54.7013C25.7158 53.3119 29.6158 52.2319 32.1571 52.2946ZM22.7078 44.9372C24.5291 47.1319 25.3585 50.9892 23.8398 52.1239C22.4011 52.9933 18.9091 52.6359 16.4265 49.0706C14.7531 46.0772 14.9678 43.0346 16.1438 42.1386C17.9011 41.0679 20.6171 42.5119 22.7078 44.9372ZM41.2425 44.2439C39.2705 46.5519 38.1745 50.7612 39.6118 52.1173C40.9851 53.1719 44.6771 53.0253 47.4011 49.2426C49.3798 46.7012 48.7185 42.4599 47.5891 41.3306C45.9078 40.0345 43.4971 41.6946 41.2425 44.2439Z" fill="url(#paint0_radial_107_831)"/>
<defs>
<radialGradient id="paint0_radial_107_831" cx="0" cy="0" r="1" gradientUnits="userSpaceOnUse" gradientTransform="translate(33.0711 58.2409) rotate(-89.8159) scale(59.0517 60.9194)">
<stop stop-color="#AD1135"/>
<stop offset="0.543578" stop-color="#E0375E"/>
<stop offset="0.661053" stop-color="#E41E4B"/>
</radialGradient>
</defs>
</svg>
