<svg width="43" height="43" viewBox="0 0 43 43" fill="none" xmlns="http://www.w3.org/2000/svg">
<rect x="0.327148" y="0.0644531" width="42" height="42" rx="21" fill="white" fill-opacity="0.1"/>
<path d="M15.1396 10.752C14.0124 10.752 13.0771 11.6872 13.0771 12.8145V29.3145C13.0771 30.4417 14.0124 31.377 15.1396 31.377H27.5146C28.6419 31.377 29.5771 30.4417 29.5771 29.3145V12.8145C29.5771 11.6872 28.6419 10.752 27.5146 10.752H15.1396ZM15.1396 27.252H23.3896V29.3145H21.3271V28.2832H19.2646V29.3145H18.2334V28.2832H16.1709V29.3145H15.1396V27.252ZM25.4521 27.252H27.5146V29.3145H25.4521V27.252Z" fill="url(#paint0_linear_104_830)"/>
<path d="M36.0405 19.0818L29.1985 7.69911C28.9597 7.30167 28.5405 7.06445 28.0769 7.06445C27.6134 7.06445 27.1942 7.30167 26.9562 7.69834L20.1133 19.0818C19.8707 19.4855 19.8644 19.9902 20.0962 20.4001C20.3272 20.81 20.7636 21.0643 21.2349 21.0643H34.9198C35.3903 21.0643 35.8274 20.81 36.0584 20.4001C36.2902 19.9902 36.2832 19.4855 36.0405 19.0818ZM28.8547 18.731H27.2992V17.1755H28.8547V18.731ZM28.8547 15.6199H27.2992V11.7311H28.8547V15.6199Z" fill="url(#paint1_linear_104_830)"/>
<defs>
<linearGradient id="paint0_linear_104_830" x1="21.3271" y1="10.752" x2="21.3271" y2="31.377" gradientUnits="userSpaceOnUse">
<stop stop-color="white"/>
<stop offset="1" stop-color="white" stop-opacity="0.7"/>
</linearGradient>
<linearGradient id="paint1_linear_104_830" x1="28.0771" y1="7.06445" x2="28.0771" y2="21.0643" gradientUnits="userSpaceOnUse">
<stop stop-color="#E22C2C"/>
<stop offset="1" stop-color="#AD0808"/>
</linearGradient>
</defs>
</svg>
