<svg width="64" height="64" viewBox="0 0 64 64" fill="none" xmlns="http://www.w3.org/2000/svg">
<path d="M26.2104 21.5074L26.3438 24.5741L24.2104 28.5741L20.8771 35.1074L20.2104 40.5741L22.6104 48.3074L28.0771 51.3741H36.3438L44.0771 45.5074L47.5438 36.3074L39.5438 26.5741L37.2771 21.1074L26.2104 21.5074Z" fill="#ECEFF1"/>
<g filter="url(#filter0_i_107_836)">
<path d="M45.1438 29.1075C43.0105 26.0409 41.2771 24.1742 40.3438 20.3075C39.4105 16.4409 40.6105 17.5075 39.8105 14.1742C39.4105 12.4409 38.7438 11.2409 38.0771 10.3075C37.2771 9.37421 36.3438 8.84087 35.8105 8.70754C34.6105 8.04087 31.8105 6.97421 28.3438 8.84087C24.7438 10.7075 25.1438 14.7075 25.8105 22.8409C25.8105 23.3742 25.6771 24.0409 25.4105 24.5742C24.8771 25.7742 23.9438 26.8409 23.1438 27.7742C22.2105 29.1075 21.2771 30.4409 20.6105 31.9075C19.0105 34.9742 17.5438 38.8409 17.9438 40.3075C18.6105 40.1742 27.0105 52.9742 27.0105 53.2409C27.5438 53.1075 29.8105 53.1075 31.8105 53.1075C34.6105 52.9742 36.2105 52.8409 38.4771 53.3742C38.4771 52.9742 38.3438 52.5742 38.3438 52.1742C38.3438 51.3742 38.4771 50.7075 38.6105 49.7742C38.7438 49.1075 38.8771 48.4409 39.0105 47.6409C37.6771 48.8409 35.2771 50.1742 33.0105 50.5742C31.0105 50.9742 27.6771 50.3075 26.0771 48.3075C26.2105 48.3075 26.4771 48.3075 26.6105 48.1742C27.0105 48.0409 27.4105 47.9075 27.5438 47.6409C27.9438 46.9742 27.6771 46.3075 27.4105 45.9075C27.1438 45.5075 25.1438 44.0409 24.2105 43.2409C23.2771 42.4409 22.7438 42.0409 22.2105 41.5075C22.2105 41.5075 21.4105 40.7075 21.1438 40.4409C20.8771 40.1742 20.7438 39.9075 20.6105 39.7742C20.3438 39.1075 20.2105 38.3075 20.3438 37.2409C20.4771 35.7742 21.0105 34.5742 21.6771 33.2409C21.9438 32.7075 22.6105 31.6409 22.6105 31.6409C22.6105 31.6409 20.3438 37.2409 21.5438 38.9742C21.5438 38.9742 21.6771 37.2409 22.2105 35.5075C22.6105 34.3075 23.2771 32.5742 24.0771 31.6409C24.8771 30.7075 26.8771 27.2409 27.0105 25.1075C27.0105 24.1742 27.1438 23.2409 27.1438 22.5742C26.6105 22.0409 35.9438 20.7075 36.4771 22.1742C36.6105 22.7075 38.4771 27.5075 39.5438 30.0409C40.0771 31.2409 40.7438 32.3075 41.1438 33.6409C41.5438 35.1075 41.8105 37.1075 41.8105 39.1075C41.8105 39.5075 41.8105 40.1742 41.6771 40.8409C41.9438 40.8409 47.1438 35.2409 41.0105 30.5742C41.0105 30.5742 44.7438 32.3075 44.8771 35.7742C45.0105 38.5742 43.8105 40.8409 43.5438 41.2409C43.6771 41.2409 46.3438 42.4409 46.4771 42.4409C47.0105 42.4409 48.0771 42.0409 48.0771 42.0409C48.2105 41.6409 48.6105 40.5742 48.6105 40.1742C49.5438 37.1075 47.2771 32.1742 45.1438 29.1075Z" fill="#263238"/>
</g>
<path d="M28.2105 14.9743C27.2532 14.9729 26.4772 16.1663 26.4758 17.6396C26.4758 19.1129 27.2505 20.3076 28.2078 20.3076H28.2105C29.1678 20.3089 29.9438 19.1156 29.9452 17.6423C29.9465 16.1689 29.1705 14.9743 28.2132 14.9743H28.2105ZM34.2105 14.4409C32.9585 14.4409 31.9438 15.8143 31.9438 17.5076C31.9438 19.2009 32.9585 20.5743 34.2105 20.5743C35.4625 20.5743 36.4772 19.2009 36.4772 17.5076C36.4772 15.8143 35.4625 14.4409 34.2105 14.4409Z" fill="#ECEFF1"/>
<path d="M27.3278 18.0569C27.4385 18.9343 27.9425 19.5916 28.4545 19.5276C28.9665 19.4636 29.2905 18.6996 29.1798 17.8236C29.0692 16.9463 28.5652 16.2889 28.0532 16.3529C27.5412 16.4169 27.2172 17.1809 27.3278 18.0569Z" fill="#212121"/>
<path d="M34.0771 16.3076C33.3411 16.3076 32.7438 17.0823 32.7424 18.0396C32.7424 18.997 33.3384 19.7729 34.0744 19.7743H34.0758C34.8118 19.7743 35.4091 18.9996 35.4104 18.0423C35.4104 17.085 34.8131 16.309 34.0771 16.3076Z" fill="#212121"/>
<path d="M51.8103 47.3742C51.277 47.1075 50.3436 46.7076 49.5436 45.5076C49.1436 44.8409 49.277 42.9742 48.6103 42.1742C48.2103 41.6409 47.677 41.9076 47.5436 41.9076C46.3436 42.1742 43.5436 44.0409 41.677 41.9076C41.4103 41.6409 41.0103 41.2409 40.3436 41.2409C39.677 41.2409 39.4103 41.5076 39.1436 42.0409C38.877 42.5742 38.877 42.9742 38.877 44.3076C38.877 45.3742 38.877 46.5742 38.7436 47.5076C38.477 49.7742 38.077 51.1076 38.077 52.4409C38.077 53.9076 38.477 54.8409 39.0103 55.2409C39.4103 55.6409 40.077 55.9076 41.5436 55.9076C43.0103 55.9076 43.9436 55.3742 44.877 54.4409C45.5436 53.7742 46.077 53.5075 47.9436 52.1742C49.4103 51.2409 51.677 50.0409 52.077 49.6409C52.3436 49.3742 52.7436 49.2409 52.7436 48.4409C52.7436 47.7742 52.2103 47.5075 51.8103 47.3742ZM25.0103 47.7742C23.677 45.6409 23.5436 45.2409 22.6103 43.9076C21.8103 42.5742 20.077 40.0409 19.0103 40.0409C18.2103 40.0409 17.8103 40.4409 17.277 40.9742C16.7436 41.5075 16.2103 42.7075 15.277 43.3742C14.477 44.0409 12.2103 43.9075 11.677 44.7075C11.1436 45.5075 12.2103 46.7075 12.2103 48.7075C12.2103 49.5075 11.5436 50.0409 11.4103 50.5742C11.277 51.2409 11.1436 51.6409 11.4103 52.1742C11.9436 52.9742 12.6103 53.2409 17.1436 54.1742C19.5436 54.7076 21.8103 56.0409 23.277 56.1742C24.7436 56.3076 27.277 56.1742 27.277 52.5742C27.4103 50.4409 26.2103 49.9076 25.0103 47.7742ZM27.5436 23.6409C26.7436 23.1076 26.077 22.5742 26.077 21.7742C26.077 20.9742 26.6103 20.7076 27.4103 20.0409C27.5436 19.9076 29.0103 18.5742 30.477 18.5742C31.9436 18.5742 33.677 19.5076 34.3436 19.7742C35.5436 20.0409 36.7436 20.3076 36.6103 21.2409C36.477 22.5742 36.3436 22.8409 35.0103 23.5076C34.077 23.7742 32.3436 25.2409 31.1436 25.2409C30.6103 25.2409 29.8103 25.2409 29.277 25.1076C28.877 24.9742 28.2103 24.3076 27.5436 23.6409Z" fill="#FFC107"/>
<path d="M27.277 22.5742C27.5437 22.8409 27.9437 23.1076 28.3437 23.2409C28.6104 23.3742 29.0104 23.5076 29.0104 23.5076C29.5437 23.5076 29.9437 23.5076 30.2104 23.5076C30.877 23.5076 31.8104 23.2409 32.7437 22.7076C33.677 22.3076 33.8104 22.0409 34.477 21.7742C35.1437 21.3742 35.8104 20.9742 35.5437 20.8409C35.277 20.7076 35.0104 20.8409 34.077 21.3742C33.277 21.9076 32.6104 22.1742 31.8104 22.5742C31.4104 22.7076 30.877 22.9742 30.477 22.9742C30.077 22.9742 29.677 22.9742 29.277 22.9742C28.877 22.9742 28.6104 22.8409 28.2104 22.7076C27.9437 22.5742 27.8104 22.4409 27.677 22.4409C27.4104 22.3076 26.877 21.7742 26.6104 21.6409C26.6104 21.6409 26.3437 21.6409 26.477 21.7742C26.877 22.1742 27.0104 22.3076 27.277 22.5742ZM31.277 19.6409C31.4104 19.9076 31.677 19.9076 31.8104 20.0409C31.9437 20.1742 32.077 20.1742 32.077 20.1742C32.2104 20.0409 32.077 19.7742 31.9437 19.7742C31.9437 19.5076 31.277 19.5076 31.277 19.6409ZM29.1437 19.9076C29.1437 20.0409 29.4104 20.1742 29.4104 20.0409C29.5437 19.9076 29.677 19.7742 29.8104 19.7742C30.077 19.6409 29.9437 19.5076 29.5437 19.5076C29.277 19.6409 29.277 19.7742 29.1437 19.9076Z" fill="#634703"/>
<path d="M42.077 43.5077C42.077 43.641 42.077 43.7744 42.077 43.9077C42.3437 44.441 43.0104 44.5744 43.5437 44.5744C44.3437 44.5744 45.1437 44.041 45.5437 43.5077C45.5437 43.3744 45.677 43.241 45.8104 43.1077C46.077 42.7077 46.2104 42.441 46.3437 42.3077C46.3437 42.3077 46.2104 42.1744 46.2104 42.041C46.077 41.7744 45.677 41.5077 45.1437 41.3744C44.7437 41.241 44.077 41.1077 43.8104 41.1077C42.6104 40.9744 41.9437 41.3744 41.5437 41.7744C41.5437 41.7744 41.677 41.7744 41.677 41.9077C41.9437 42.1744 42.077 42.441 42.077 42.841C42.2104 43.1077 42.077 43.241 42.077 43.5077Z" fill="#455A64"/>
<defs>
<filter id="filter0_i_107_836" x="17.8772" y="7.79419" width="30.9492" height="46.5801" filterUnits="userSpaceOnUse" color-interpolation-filters="sRGB">
<feFlood flood-opacity="0" result="BackgroundImageFix"/>
<feBlend mode="normal" in="SourceGraphic" in2="BackgroundImageFix" result="shape"/>
<feColorMatrix in="SourceAlpha" type="matrix" values="0 0 0 0 0 0 0 0 0 0 0 0 0 0 0 0 0 0 127 0" result="hardAlpha"/>
<feOffset dy="1"/>
<feGaussianBlur stdDeviation="0.5"/>
<feComposite in2="hardAlpha" operator="arithmetic" k2="-1" k3="1"/>
<feColorMatrix type="matrix" values="0 0 0 0 1 0 0 0 0 1 0 0 0 0 1 0 0 0 0.15 0"/>
<feBlend mode="normal" in2="shape" result="effect1_innerShadow_107_836"/>
</filter>
</defs>
</svg>
