<svg width="81" height="64" viewBox="0 0 81 64" fill="none" xmlns="http://www.w3.org/2000/svg">
<g clip-path="url(#clip0_3659_25745)">
<path d="M79.3779 26.3723C77.4167 25.0521 72.2629 24.4883 68.516 25.4975C68.314 21.7654 66.3898 18.6205 62.8693 15.8764L61.566 15.0016L60.6975 16.3133C58.9902 18.905 58.2709 22.3578 58.5258 25.4964C58.7268 27.4301 59.3996 29.604 60.6975 31.1812C55.8209 34.0099 51.3261 33.3678 31.4198 33.3678H0.685367C0.595451 37.8625 1.31795 46.5093 6.81659 53.5481C7.42379 54.3256 8.09023 55.0778 8.81273 55.8024C13.2832 60.2792 20.0374 63.5616 30.1377 63.5711C45.5461 63.5849 58.7479 55.2565 66.778 35.1185C69.4205 35.1619 76.3958 35.5924 79.8095 28.9957C79.893 28.8847 80.678 27.2461 80.678 27.2461L79.3768 26.3712L79.3779 26.3723ZM20.743 22.2615H12.1005V30.9041H20.743V22.2615ZM31.9085 22.2615H23.266V30.9041H31.9085V22.2615ZM43.074 22.2615H34.4314V30.9041H43.074V22.2615ZM54.2394 22.2615H45.5969V30.9041H54.2394V22.2615ZM9.57755 22.2615H0.935016V30.9041H9.57755V22.2615ZM20.743 11.3457H12.1005V19.9882H20.743V11.3457ZM31.9085 11.3457H23.266V19.9882H31.9085V11.3457ZM43.074 11.3457H34.4314V19.9882H43.074V11.3457ZM43.074 0.428833H34.4314V9.07136H43.074V0.428833Z" fill="#1D63ED"/>
</g>
<defs>
<clipPath id="clip0_3659_25745">
<rect width="80" height="63.1423" fill="white" transform="translate(0.679199 0.428833)"/>
</clipPath>
</defs>
</svg>
