<svg width="27" height="20" viewBox="0 0 27 20" fill="none" xmlns="http://www.w3.org/2000/svg">
  <path d="M24.5 0H2.5C1.96957 0 1.46086 0.210714 1.08579 0.585786C0.710714 0.960859 0.5 1.46957 0.5 2V18C0.5 18.5304 0.710714 19.0391 1.08579 19.4142C1.46086 19.7893 1.96957 20 2.5 20H24.5C25.0304 20 25.5391 19.7893 25.9142 19.4142C26.2893 19.0391 26.5 18.5304 26.5 18V2C26.5 1.46957 26.2893 0.960859 25.9142 0.585786C25.5391 0.210714 25.0304 0 24.5 0ZM5.5 15C5.5 15.2652 5.39464 15.5196 5.20711 15.7071C5.01957 15.8946 4.76522 16 4.5 16C4.23478 16 3.98043 15.8946 3.79289 15.7071C3.60536 15.5196 3.5 15.2652 3.5 15V5C3.5 4.73478 3.60536 4.48043 3.79289 4.29289C3.98043 4.10536 4.23478 4 4.5 4C4.76522 4 5.01957 4.10536 5.20711 4.29289C5.39464 4.48043 5.5 4.73478 5.5 5V15ZM14.6625 10.0238L13.1175 10.5238L14.0725 11.8363C14.1497 11.9429 14.2052 12.0638 14.2357 12.1919C14.2662 12.3201 14.2712 12.453 14.2504 12.583C14.2296 12.7131 14.1833 12.8378 14.1143 12.95C14.0453 13.0621 13.9548 13.1596 13.8481 13.2369C13.7414 13.3141 13.6206 13.3696 13.4924 13.4001C13.3643 13.4306 13.2314 13.4356 13.1013 13.4148C12.9713 13.3939 12.8466 13.3477 12.7344 13.2787C12.6222 13.2096 12.5247 13.1192 12.4475 13.0125L11.5 11.7013L10.5463 13.015C10.3903 13.2305 10.1551 13.3752 9.89241 13.4173C9.62974 13.4593 9.36111 13.3954 9.14563 13.2394C8.93014 13.0834 8.78544 12.8482 8.74336 12.5855C8.70128 12.3229 8.76527 12.0542 8.92125 11.8388L9.87625 10.5263L8.33125 10.0263C8.20641 9.98521 8.09088 9.91999 7.99125 9.8343C7.89162 9.74861 7.80984 9.64414 7.75059 9.52685C7.63091 9.28997 7.61024 9.01525 7.69312 8.76313C7.73416 8.63829 7.79939 8.52275 7.88508 8.42312C7.97076 8.32349 8.07524 8.24172 8.19253 8.18246C8.42941 8.06279 8.70413 8.04212 8.95625 8.125L10.5 8.625V7C10.5 6.73478 10.6054 6.48043 10.7929 6.29289C10.9804 6.10536 11.2348 6 11.5 6C11.7652 6 12.0196 6.10536 12.2071 6.29289C12.3946 6.48043 12.5 6.73478 12.5 7V8.625L14.0438 8.125C14.1686 8.08396 14.3003 8.06791 14.4313 8.07777C14.5624 8.08763 14.6902 8.12321 14.8075 8.18246C14.9248 8.24172 15.0292 8.32349 15.1149 8.42312C15.2006 8.52275 15.2658 8.63829 15.3069 8.76313C15.3479 8.88796 15.364 9.01966 15.3541 9.1507C15.3442 9.28174 15.3087 9.40956 15.2494 9.52685C15.1902 9.64414 15.1084 9.74861 15.0088 9.8343C14.9091 9.91999 14.7936 9.98521 14.6688 10.0263L14.6625 10.0238ZM23.6625 10.0238L22.1175 10.5238L23.0725 11.8363C23.1497 11.9429 23.2052 12.0638 23.2357 12.1919C23.2662 12.3201 23.2712 12.453 23.2504 12.583C23.2296 12.7131 23.1833 12.8378 23.1143 12.95C23.0453 13.0621 22.9548 13.1596 22.8481 13.2369C22.7414 13.3141 22.6206 13.3696 22.4924 13.4001C22.3643 13.4306 22.2314 13.4356 22.1013 13.4148C21.9713 13.3939 21.8466 13.3477 21.7344 13.2787C21.6222 13.2096 21.5247 13.1192 21.4475 13.0125L20.5 11.7013L19.5462 13.015C19.3903 13.2305 19.1551 13.3752 18.8924 13.4173C18.6297 13.4593 18.3611 13.3954 18.1456 13.2394C17.9301 13.0834 17.7854 12.8482 17.7434 12.5855C17.7013 12.3229 17.7653 12.0542 17.9212 11.8388L18.8762 10.5263L17.3312 10.0263C17.2064 9.98521 17.0909 9.91999 16.9912 9.8343C16.8916 9.74861 16.8098 9.64414 16.7506 9.52685C16.6309 9.28997 16.6102 9.01525 16.6931 8.76313C16.7342 8.63829 16.7994 8.52275 16.8851 8.42312C16.9708 8.32349 17.0752 8.24172 17.1925 8.18246C17.4294 8.06279 17.7041 8.04212 17.9562 8.125L19.5 8.625V7C19.5 6.73478 19.6054 6.48043 19.7929 6.29289C19.9804 6.10536 20.2348 6 20.5 6C20.7652 6 21.0196 6.10536 21.2071 6.29289C21.3946 6.48043 21.5 6.73478 21.5 7V8.625L23.0438 8.125C23.1686 8.08396 23.3003 8.06791 23.4313 8.07777C23.5624 8.08763 23.6902 8.12321 23.8075 8.18246C23.9248 8.24172 24.0292 8.32349 24.1149 8.42312C24.2006 8.52275 24.2658 8.63829 24.3069 8.76313C24.3479 8.88796 24.364 9.01966 24.3541 9.1507C24.3442 9.28174 24.3087 9.40956 24.2494 9.52685C24.1902 9.64414 24.1084 9.74861 24.0088 9.8343C23.9091 9.91999 23.7936 9.98521 23.6688 10.0263L23.6625 10.0238Z" fill="url(#paint0_linear_513_14052)"/>
    <defs>
      <linearGradient id="paint0_linear_513_14052" x1="0.5" y1="0" x2="19.8308" y2="25.1301" gradientUnits="userSpaceOnUse">
        <stop stop-color="#9695FA"/>
        <stop offset="1" stop-color="#6B69F3"/>
      </linearGradient>
    </defs>
</svg>