<svg width="29" height="25" viewBox="0 0 29 25" fill="none" xmlns="http://www.w3.org/2000/svg">
  <path d="M28.0999 20.5112L17.1686 1.52746C16.8955 1.06237 16.5055 0.676734 16.0374 0.408786C15.5693 0.140838 15.0393 -0.00012207 14.4999 -0.00012207C13.9605 -0.00012207 13.4305 0.140838 12.9624 0.408786C12.4943 0.676734 12.1043 1.06237 11.8311 1.52746L0.899876 20.5112C0.637046 20.9611 0.498535 21.4727 0.498535 21.9937C0.498535 22.5147 0.637046 23.0264 0.899876 23.4762C1.16954 23.9441 1.55884 24.3318 2.02783 24.5996C2.49682 24.8674 3.02861 25.0056 3.56863 25H25.4311C25.9707 25.0051 26.502 24.8667 26.9705 24.599C27.439 24.3312 27.8279 23.9437 28.0974 23.4762C28.3606 23.0266 28.4995 22.5151 28.5 21.994C28.5004 21.473 28.3623 20.9613 28.0999 20.5112ZM13.4999 9.99996C13.4999 9.73474 13.6052 9.48039 13.7928 9.29285C13.9803 9.10532 14.2347 8.99996 14.4999 8.99996C14.7651 8.99996 15.0194 9.10532 15.207 9.29285C15.3945 9.48039 15.4999 9.73474 15.4999 9.99996V15C15.4999 15.2652 15.3945 15.5195 15.207 15.7071C15.0194 15.8946 14.7651 16 14.4999 16C14.2347 16 13.9803 15.8946 13.7928 15.7071C13.6052 15.5195 13.4999 15.2652 13.4999 15V9.99996ZM14.4999 21C14.2032 21 13.9132 20.912 13.6665 20.7472C13.4198 20.5823 13.2276 20.3481 13.1141 20.074C13.0005 19.7999 12.9708 19.4983 13.0287 19.2073C13.0866 18.9164 13.2294 18.6491 13.4392 18.4393C13.649 18.2295 13.9163 18.0867 14.2072 18.0288C14.4982 17.9709 14.7998 18.0006 15.0739 18.1141C15.348 18.2277 15.5823 18.4199 15.7471 18.6666C15.9119 18.9133 15.9999 19.2033 15.9999 19.5C15.9999 19.8978 15.8418 20.2793 15.5605 20.5606C15.2792 20.8419 14.8977 21 14.4999 21Z" fill="#FFC107"/>
</svg>