<svg width="19" height="18" viewBox="0 0 19 18" fill="none" xmlns="http://www.w3.org/2000/svg">
  <path d="M9.49999 4.62504C9.66575 4.62504 9.82472 4.69089 9.94193 4.8081C10.0591 4.92531 10.125 5.08428 10.125 5.25004V9.62504C10.125 9.7908 10.0591 9.94977 9.94193 10.067C9.82472 10.1842 9.66575 10.25 9.49999 10.25C9.33423 10.25 9.17526 10.1842 9.05805 10.067C8.94084 9.94977 8.87499 9.7908 8.87499 9.62504V5.25004C8.87499 5.08428 8.94084 4.92531 9.05805 4.8081C9.17526 4.69089 9.33423 4.62504 9.49999 4.62504ZM8.56249 12.4375C8.56249 12.623 8.61747 12.8042 8.72049 12.9584C8.8235 13.1126 8.96992 13.2327 9.14122 13.3037C9.31253 13.3746 9.50103 13.3932 9.68289 13.357C9.86474 13.3209 10.0318 13.2316 10.1629 13.1005C10.294 12.9693 10.3833 12.8023 10.4195 12.6204C10.4557 12.4386 10.4371 12.2501 10.3661 12.0788C10.2952 11.9075 10.175 11.761 10.0208 11.658C9.86667 11.555 9.68541 11.5 9.49999 11.5C9.25135 11.5 9.01289 11.5988 8.83708 11.7746C8.66126 11.9504 8.56249 12.1889 8.56249 12.4375ZM18.25 9.00004C18.2505 9.16375 18.2184 9.32594 18.1558 9.4772C18.0932 9.62846 18.0012 9.76581 17.8851 9.88129L10.3812 17.386C10.147 17.6188 9.83022 17.7495 9.49999 17.7495C9.16976 17.7495 8.85294 17.6188 8.61874 17.386L1.11874 9.88129C0.885926 9.64709 0.755249 9.33027 0.755249 9.00004C0.755249 8.66981 0.885926 8.35299 1.11874 8.11879L8.62265 0.614101C8.85685 0.381288 9.17366 0.25061 9.5039 0.25061C9.83413 0.25061 10.1509 0.381288 10.3851 0.614101L17.8891 8.11879C18.0044 8.23459 18.0957 8.37208 18.1576 8.52333C18.2196 8.67458 18.251 8.8366 18.25 9.00004ZM17 9.00004L9.49999 1.50004L1.99999 9.00004L9.49999 16.5L17 9.00004Z" fill="#7B2E32"/>
</svg>