<svg width="21" height="16" viewBox="0 0 21 16" fill="none" xmlns="http://www.w3.org/2000/svg">
  <path d="M20.2219 7.47969L16.4719 4.97969C16.3777 4.91688 16.2683 4.88081 16.1552 4.87533C16.0422 4.86986 15.9298 4.89518 15.83 4.9486C15.7302 5.00201 15.6468 5.08152 15.5887 5.17864C15.5306 5.27575 15.4999 5.38683 15.5 5.50001V7.37501H6.125V3.62501H8.70312C8.85525 4.21417 9.21702 4.72762 9.72063 5.06913C10.2242 5.41064 10.8351 5.55675 11.4388 5.48008C12.0424 5.40341 12.5973 5.10922 12.9996 4.65265C13.4018 4.19609 13.6237 3.60849 13.6237 3.00001C13.6237 2.39152 13.4018 1.80393 12.9996 1.34736C12.5973 0.890794 12.0424 0.596603 11.4388 0.519932C10.8351 0.44326 10.2242 0.589372 9.72063 0.93088C9.21702 1.27239 8.85525 1.78584 8.70312 2.37501H6.125C5.79348 2.37501 5.47554 2.5067 5.24112 2.74112C5.0067 2.97554 4.875 3.29349 4.875 3.62501V7.37501H1.125C0.95924 7.37501 0.800269 7.44085 0.683058 7.55806C0.565848 7.67527 0.5 7.83425 0.5 8.00001C0.5 8.16577 0.565848 8.32474 0.683058 8.44195C0.800269 8.55916 0.95924 8.62501 1.125 8.62501H4.875V12.375C4.875 12.7065 5.0067 13.0245 5.24112 13.2589C5.47554 13.4933 5.79348 13.625 6.125 13.625H8.625V14.25C8.625 14.5815 8.7567 14.8995 8.99112 15.1339C9.22554 15.3683 9.54348 15.5 9.875 15.5H12.375C12.7065 15.5 13.0245 15.3683 13.2589 15.1339C13.4933 14.8995 13.625 14.5815 13.625 14.25V11.75C13.625 11.4185 13.4933 11.1005 13.2589 10.8661C13.0245 10.6317 12.7065 10.5 12.375 10.5H9.875C9.54348 10.5 9.22554 10.6317 8.99112 10.8661C8.7567 11.1005 8.625 11.4185 8.625 11.75V12.375H6.125V8.62501H15.5V10.5C15.4999 10.6132 15.5306 10.7243 15.5887 10.8214C15.6468 10.9185 15.7302 10.998 15.83 11.0514C15.9298 11.1048 16.0422 11.1302 16.1552 11.1247C16.2683 11.1192 16.3777 11.0831 16.4719 11.0203L20.2219 8.52032C20.3076 8.46327 20.3779 8.38591 20.4265 8.29514C20.4752 8.20437 20.5006 8.10298 20.5006 8.00001C20.5006 7.89703 20.4752 7.79564 20.4265 7.70487C20.3779 7.6141 20.3076 7.53675 20.2219 7.47969ZM11.125 1.75001C11.3722 1.75001 11.6139 1.82332 11.8195 1.96067C12.025 2.09802 12.1852 2.29324 12.2798 2.52165C12.3745 2.75006 12.3992 3.00139 12.351 3.24387C12.3028 3.48635 12.1837 3.70907 12.0089 3.88389C11.8341 4.0587 11.6113 4.17776 11.3689 4.22599C11.1264 4.27422 10.8751 4.24947 10.6466 4.15486C10.4182 4.06025 10.223 3.90003 10.0857 3.69447C9.94831 3.48891 9.875 3.24723 9.875 3.00001C9.875 2.66849 10.0067 2.35054 10.2411 2.11612C10.4755 1.8817 10.7935 1.75001 11.125 1.75001ZM9.875 11.75H12.375V14.25H9.875V11.75ZM16.75 9.33204V6.67188L18.7484 8.00001L16.75 9.33204Z" fill="#99C2FF"/>
</svg>