<svg width="15" height="15" viewBox="0 0 15 15" fill="none" xmlns="http://www.w3.org/2000/svg">
  <path d="M6.875 7V0.75C6.875 0.58424 6.94085 0.425269 7.05806 0.308058C7.17527 0.190848 7.33424 0.125 7.5 0.125C7.66576 0.125 7.82473 0.190848 7.94194 0.308058C8.05915 0.425269 8.125 0.58424 8.125 0.75V7C8.125 7.16576 8.05915 7.32473 7.94194 7.44194C7.82473 7.55915 7.66576 7.625 7.5 7.625C7.33424 7.625 7.17527 7.55915 7.05806 7.44194C6.94085 7.32473 6.875 7.16576 6.875 7ZM11.5914 0.851562C11.4526 0.76383 11.2848 0.734251 11.1244 0.769222C10.9639 0.804193 10.8237 0.900903 10.734 1.03844C10.6443 1.17599 10.6123 1.34331 10.645 1.50424C10.6777 1.66516 10.7724 1.80677 10.9086 1.89844C12.7141 3.07578 13.75 4.93516 13.75 7C13.75 8.6576 13.0915 10.2473 11.9194 11.4194C10.7473 12.5915 9.1576 13.25 7.5 13.25C5.8424 13.25 4.25269 12.5915 3.08058 11.4194C1.90848 10.2473 1.25 8.6576 1.25 7C1.25 4.93516 2.28594 3.07578 4.09141 1.89844C4.22765 1.80677 4.32234 1.66516 4.35502 1.50424C4.38769 1.34331 4.35571 1.17599 4.266 1.03844C4.17629 0.900903 4.03606 0.804193 3.87561 0.769222C3.71517 0.734251 3.5474 0.76383 3.40859 0.851562C1.24219 2.26406 0 4.50469 0 7C2.96403e-08 8.98912 0.790176 10.8968 2.1967 12.3033C3.60322 13.7098 5.51088 14.5 7.5 14.5C9.48912 14.5 11.3968 13.7098 12.8033 12.3033C14.2098 10.8968 15 8.98912 15 7C15 4.50469 13.7578 2.26406 11.5914 0.851562Z" fill="#99C2FF"/>
</svg>