<svg width="15" height="14" viewBox="0 0 15 14" fill="none" xmlns="http://www.w3.org/2000/svg">
  <path d="M14.8172 7.44217L9.19219 13.0672C9.07491 13.1844 8.91585 13.2503 8.75 13.2503C8.58415 13.2503 8.42509 13.1844 8.30781 13.0672C8.19054 12.9499 8.12465 12.7908 8.12465 12.625C8.12465 12.4591 8.19054 12.3001 8.30781 12.1828L12.8664 7.62498H0.625C0.45924 7.62498 0.300269 7.55913 0.183058 7.44192C0.0658481 7.32471 0 7.16574 0 6.99998C0 6.83422 0.0658481 6.67525 0.183058 6.55804C0.300269 6.44083 0.45924 6.37498 0.625 6.37498H12.8664L8.30781 1.81717C8.19054 1.69989 8.12465 1.54083 8.12465 1.37498C8.12465 1.20913 8.19054 1.05007 8.30781 0.932794C8.42509 0.815518 8.58415 0.749634 8.75 0.749634C8.91585 0.749634 9.07491 0.815518 9.19219 0.932794L14.8172 6.55779C14.8753 6.61584 14.9214 6.68477 14.9529 6.76064C14.9843 6.83652 15.0005 6.91785 15.0005 6.99998C15.0005 7.08212 14.9843 7.16345 14.9529 7.23932C14.9214 7.31519 14.8753 7.38412 14.8172 7.44217Z" fill="#99C2FF"/>
</svg>