<svg width="27" height="26" viewBox="0 0 27 26" fill="none" xmlns="http://www.w3.org/2000/svg">
  <path d="M13.5 0C10.9288 0 8.41543 0.762437 6.27759 2.1909C4.13975 3.61935 2.47351 5.64968 1.48957 8.02512C0.505633 10.4006 0.248189 13.0144 0.749797 15.5362C1.25141 18.0579 2.48953 20.3743 4.30762 22.1924C6.1257 24.0105 8.44208 25.2486 10.9638 25.7502C13.4856 26.2518 16.0995 25.9944 18.4749 25.0104C20.8503 24.0265 22.8807 22.3603 24.3091 20.2224C25.7376 18.0846 26.5 15.5712 26.5 13C26.5 9.55219 25.1304 6.24558 22.6924 3.80761C20.2544 1.36964 16.9478 0 13.5 0ZM12.5 5C12.5 4.73478 12.6054 4.48043 12.7929 4.29289C12.9804 4.10536 13.2348 4 13.5 4C13.7652 4 14.0196 4.10536 14.2071 4.29289C14.3946 4.48043 14.5 4.73478 14.5 5V13C14.5 13.2652 14.3946 13.5196 14.2071 13.7071C14.0196 13.8946 13.7652 14 13.5 14C13.2348 14 12.9804 13.8946 12.7929 13.7071C12.6054 13.5196 12.5 13.2652 12.5 13V5ZM13.5 23C11.3545 23.0002 9.26585 22.3104 7.5425 21.0324C5.81916 19.7545 4.55251 17.9562 3.92967 15.9031C3.30682 13.85 3.36079 11.651 4.08362 9.63095C4.80644 7.61089 6.15979 5.87687 7.94376 4.685C8.05272 4.60794 8.17602 4.55347 8.30637 4.5248C8.43672 4.49613 8.57148 4.49385 8.70273 4.51808C8.83398 4.54232 8.95904 4.59258 9.07056 4.6659C9.18208 4.73923 9.27779 4.83414 9.35205 4.94503C9.42632 5.05592 9.47763 5.18056 9.50297 5.3116C9.52831 5.44264 9.52716 5.57742 9.49959 5.70801C9.47203 5.83859 9.4186 5.96234 9.34246 6.07195C9.26632 6.18157 9.169 6.27483 9.05626 6.34625C7.62903 7.29964 6.54627 8.68676 5.9679 10.3027C5.38953 11.9187 5.34621 13.6779 5.84434 15.3204C6.34248 16.9628 7.35565 18.4016 8.73421 19.4241C10.1128 20.4465 11.7836 20.9985 13.5 20.9985C15.2164 20.9985 16.8872 20.4465 18.2658 19.4241C19.6444 18.4016 20.6575 16.9628 21.1557 15.3204C21.6538 13.6779 21.6105 11.9187 21.0321 10.3027C20.4537 8.68676 19.371 7.29964 17.9438 6.34625C17.831 6.27483 17.7337 6.18157 17.6576 6.07195C17.5814 5.96234 17.528 5.83859 17.5004 5.70801C17.4729 5.57742 17.4717 5.44264 17.497 5.3116C17.5224 5.18056 17.5737 5.05592 17.648 4.94503C17.7222 4.83414 17.8179 4.73923 17.9295 4.6659C18.041 4.59258 18.166 4.54232 18.2973 4.51808C18.4285 4.49385 18.5633 4.49613 18.6936 4.5248C18.824 4.55347 18.9473 4.60794 19.0563 4.685C20.8402 5.87687 22.1936 7.61089 22.9164 9.63095C23.6392 11.651 23.6932 13.85 23.0703 15.9031C22.4475 17.9562 21.1809 19.7545 19.4575 21.0324C17.7342 22.3104 15.6455 23.0002 13.5 23Z" fill="url(#paint0_linear_513_14058)"/>
  <defs>
    <linearGradient id="paint0_linear_513_14058" x1="6.36958" y1="5.86958" x2="20.2576" y2="19.7576" gradientUnits="userSpaceOnUse">
      <stop stop-color="#FF767F"/>
      <stop offset="1" stop-color="#FF4756"/>
    </linearGradient>
  </defs>
</svg>