<svg width="32" height="32" viewBox="0 0 32 32" fill="none" xmlns="http://www.w3.org/2000/svg">
<g clip-path="url(#clip0_1_3)">
<rect width="32" height="32" fill="#FF0000"/>
<path fill-rule="evenodd" clip-rule="evenodd" d="M16.027 11.259C18.694 11.2072 20.7937 11.9322 22.4223 13.3593C23.6055 14.396 24.5949 15.8516 25.3601 17.774C24.7771 17.6288 24.1608 17.5577 23.5156 17.5577C22.1507 17.5577 20.9258 17.8767 19.9053 18.5708C18.762 17.866 17.532 17.4955 16.2292 17.4955C14.8967 17.4955 13.6176 17.8828 12.4036 18.6097C11.2319 17.8651 9.91156 17.4955 8.47101 17.4955C7.95083 17.4955 7.4531 17.5442 6.98356 17.6462C7.67163 15.8782 8.58194 14.5152 9.68716 13.5163C11.2665 12.089 13.3474 11.311 16.027 11.259ZM4.96401 21.0895C5.35827 21.145 5.74109 20.9831 5.98177 20.6861C6.46921 20.1146 7.2323 19.7519 8.47101 19.7519C9.63919 19.7519 10.6413 20.0799 11.5176 20.728L11.5522 20.754C12.0283 21.1121 12.6765 21.1268 13.1682 20.7908C14.2153 20.075 15.2299 19.7519 16.2292 19.7519C17.2107 19.7519 18.1631 20.0633 19.1072 20.7405L19.1269 20.7547C19.651 21.1335 20.3635 21.1006 20.8513 20.6753C21.4749 20.1315 22.3283 19.8141 23.5156 19.8141C24.7648 19.8141 25.7334 20.1663 26.4982 20.8186C26.5338 20.8502 26.5712 20.8794 26.6103 20.9061C26.7121 20.9759 26.8222 21.0267 26.9361 21.0587C27.1089 21.1076 27.2956 21.115 27.482 21.0724C27.5825 21.0496 27.6802 21.0128 27.7721 20.9621C28.0617 20.8025 28.2636 20.5217 28.3298 20.2023C28.3568 20.0724 28.3612 19.9361 28.34 19.7989C28.3334 19.7558 28.3243 19.713 28.3128 19.6709C27.4268 16.2032 25.9784 13.4883 23.8858 11.6546C21.7708 9.80143 19.1048 8.94241 15.9841 9.00299C12.8759 9.06332 10.2482 9.98167 8.198 11.8346C6.16566 13.6714 4.80469 16.3325 4.03392 19.696C4.02261 19.7414 4.01417 19.7874 4.00857 19.8336C3.96853 20.1581 4.0709 20.4737 4.27138 20.7089C4.37655 20.8322 4.50873 20.9334 4.66151 21.0022C4.75883 21.0461 4.86074 21.0752 4.96401 21.0895Z" fill="white"/>
</g>
<defs>
<clipPath id="clip0_1_3">
<rect width="32" height="32" fill="white"/>
</clipPath>
</defs>
</svg>
